<svg width="23" height="23" viewBox="0 0 23 23" fill="none" xmlns="http://www.w3.org/2000/svg">
<g clip-path="url(#clip0_570_1793)">
<mask id="mask0_570_1793" style="mask-type:luminance" maskUnits="userSpaceOnUse" x="0" y="0" width="23" height="23">
<path d="M22.5 0.650391V22.6504H0.5V0.650391H22.5Z" fill="white"/>
</mask>
<g mask="url(#mask0_570_1793)">
<path d="M11.5 2.48364C6.4354 2.48364 2.33331 6.58573 2.33331 11.6503C2.33331 16.7149 6.4354 20.817 11.5 20.817C16.5646 20.817 20.6666 16.7149 20.6666 11.6503C20.6666 6.58573 16.5646 2.48364 11.5 2.48364ZM11.5 18.9836C7.45748 18.9836 4.16665 15.6928 4.16665 11.6503C4.16665 7.60781 7.45748 4.31698 11.5 4.31698C15.5425 4.31698 18.8333 7.60781 18.8333 11.6503C18.8333 15.6928 15.5425 18.9836 11.5 18.9836ZM9.73998 10.6099C9.7904 10.312 9.88206 10.0461 10.015 9.81239C10.1479 9.57864 10.3312 9.39073 10.5558 9.24864C10.7712 9.11573 11.0416 9.04239 11.3762 9.03781C11.5962 9.04239 11.7979 9.07906 11.9721 9.15698C12.16 9.23948 12.3158 9.34948 12.4487 9.48698C12.5816 9.62448 12.6825 9.78948 12.7558 9.97281C12.8291 10.1561 12.8704 10.3532 12.8796 10.5595H14.5204C14.5066 10.1286 14.4196 9.73448 14.2683 9.37698C14.1171 9.01948 13.8971 8.71239 13.6221 8.45114C13.3471 8.18989 13.0171 7.99281 12.6321 7.85073C12.2471 7.70864 11.8208 7.63531 11.3533 7.63531C10.7575 7.63531 10.2396 7.73614 9.79956 7.94239C9.35956 8.14864 8.9929 8.42823 8.69956 8.78573C8.40623 9.14323 8.18623 9.55573 8.04415 10.0278C7.90206 10.4999 7.83331 10.9995 7.83331 11.5266V11.7786C7.83331 12.3103 7.90665 12.8099 8.04873 13.282C8.19081 13.7541 8.41081 14.1666 8.70415 14.5195C8.99748 14.8724 9.36415 15.152 9.80873 15.3582C10.2533 15.5645 10.7712 15.6653 11.3671 15.6653C11.7979 15.6653 12.2012 15.5966 12.5771 15.4545C12.9529 15.3124 13.2829 15.1199 13.5671 14.8724C13.8512 14.6249 14.0804 14.3407 14.2454 14.0107C14.4104 13.6807 14.5066 13.3324 14.5204 12.9566H12.8796C12.8704 13.1491 12.8246 13.3232 12.7421 13.4882C12.6596 13.6532 12.5496 13.7907 12.4121 13.9053C12.2746 14.0199 12.1141 14.1116 11.9308 14.1757C11.7566 14.2353 11.5733 14.2674 11.3762 14.2674C11.0462 14.2582 10.7758 14.1895 10.5558 14.052C10.3266 13.9053 10.1433 13.7174 10.0104 13.4836C9.87748 13.2499 9.78581 12.9841 9.7354 12.6816C9.68498 12.3791 9.66665 12.0857 9.66665 11.7786V11.5266C9.66665 11.2149 9.68956 10.9078 9.73998 10.6099Z" fill="black"/>
</g>
</g>
<defs>
<clipPath id="clip0_570_1793">
<rect width="22" height="22" fill="white" transform="translate(0.5 0.650391)"/>
</clipPath>
</defs>
</svg>
