<svg width="533" height="397" viewBox="0 0 533 397" fill="none" xmlns="http://www.w3.org/2000/svg">
<path d="M1.38283e-05 348.722H532.535V348.988H1.38283e-05V348.722Z" fill="#EBEBEB"/>
<path d="M443.896 365.86H479.187V366.126H443.896V365.86Z" fill="#EBEBEB"/>
<path d="M343.518 368.74H352.789V369.006H343.518V368.74Z" fill="#EBEBEB"/>
<path d="M422.402 355.96H442.831V356.226H422.402V355.96Z" fill="#EBEBEB"/>
<path d="M55.8894 357.75H101.879V358.017H55.8894V357.75Z" fill="#EBEBEB"/>
<path d="M111.367 357.75H118.121V358.017H111.367V357.75Z" fill="#EBEBEB"/>
<path d="M140.026 362.253H239.799V362.519H140.026V362.253Z" fill="#EBEBEB"/>
<path fill-rule="evenodd" clip-rule="evenodd" d="M252.434 301.208H46.7642C43.4239 301.208 40.7129 298.472 40.7129 295.132V6.02706C40.7371 2.71096 43.4481 0.024205 46.7642 0H252.434C255.799 0 258.51 2.73517 258.51 6.09967V295.132C258.51 298.497 255.799 301.208 252.434 301.208ZM46.7642 0.217844C43.5691 0.217844 40.9791 2.83199 40.9791 6.02706V295.132C40.9791 298.327 43.5691 300.941 46.7642 300.941H252.434C255.63 300.941 258.244 298.327 258.244 295.132V6.02706C258.244 2.83199 255.63 0.217844 252.434 0.217844H46.7642Z" fill="#EBEBEB"/>
<path fill-rule="evenodd" clip-rule="evenodd" d="M482.818 301.208H277.148C273.783 301.208 271.072 298.497 271.072 295.132V6.02706C271.097 2.71096 273.807 0.024205 277.148 0H482.818C486.134 0.024205 488.845 2.71096 488.869 6.02706V295.132C488.869 298.472 486.158 301.208 482.818 301.208ZM277.148 0.217844C273.928 0.217844 271.339 2.83199 271.339 6.02706V295.132C271.339 298.327 273.928 300.941 277.148 300.941H482.818C486.013 300.941 488.627 298.327 488.627 295.132V6.02706C488.627 2.83199 486.013 0.217844 482.818 0.217844H277.148Z" fill="#EBEBEB"/>
<path d="M470.619 347.367V294.842H446.389V246.117H442.952V274.05H433.633V266.328H416.859V239.606H413.737V206.929H411.244V239.001H405.362V286.515H394.155V239.001H373.968V279.181H352.764V230.481H349.327V258.389H340.008V250.668H323.234V223.945H320.136V191.269H317.643V223.364H311.737V270.855H300.554V223.364H280.343V269.33H266.715V242.583H263.617V209.906H261.124V242.002H255.218V289.517H244.035V242.002H223.824V289.517H213.876V294.842H196.472V246.117H193.059V274.05H183.716V266.328H166.942V239.606H163.844V206.929H161.351V239.001H155.929V236.314H135.718V239.001H124.535V236.314H118.629V204.242H116.16V236.919H113.038V263.642H96.2635V271.363H86.9445V243.455H83.5074V292.155H59.2782V347.367H470.619Z" fill="#EBEBEB"/>
<path d="M135.548 48.265C150.652 42.0201 167.959 49.1848 174.228 64.2887C180.473 79.3927 173.308 96.6993 158.204 102.968C143.1 109.213 125.794 102.049 119.525 86.9447C113.28 71.8407 120.444 54.5341 135.548 48.265Z" fill="#FAFAFA"/>
<path d="M131.53 75.2775C131.53 72.4455 129.207 70.1461 126.375 70.1461C125.874 70.1461 125.382 70.2187 124.898 70.3639C125.794 64.4095 121.679 58.8907 115.749 57.9951C115.216 57.9144 114.675 57.8741 114.127 57.8741C113.449 57.8741 112.779 57.9386 112.118 58.0677C109.407 53.5898 103.549 52.1375 99.047 54.8727C96.2635 56.567 94.5207 59.5927 94.4723 62.8361H94.3028C89.4618 62.8603 85.5406 66.7816 85.5406 71.6226C85.5406 76.4636 89.4618 80.3848 94.3028 80.409H126.52C129.303 80.3364 131.53 78.0611 131.53 75.2775Z" fill="#F0F0F0"/>
<path d="M455.612 146.561C455.612 143.729 453.312 141.43 450.456 141.43C449.972 141.43 449.464 141.502 449.004 141.648C449.875 135.693 445.784 130.174 439.83 129.279C439.297 129.198 438.757 129.158 438.208 129.158C437.547 129.158 436.877 129.222 436.199 129.352C433.44 124.874 427.582 123.47 423.104 126.229C420.345 127.948 418.626 130.949 418.578 134.217H418.408C413.567 134.217 409.646 138.138 409.646 142.979C409.646 147.82 413.567 151.765 418.408 151.765H450.65C453.433 151.669 455.66 149.369 455.612 146.561Z" fill="#F0F0F0"/>
<path d="M303.241 68.4278C303.217 63.9499 306.847 60.3191 311.325 60.2949C312.148 60.2949 312.947 60.416 313.722 60.6338C313.609 59.8108 313.552 58.9798 313.552 58.1407C313.528 48.6281 321.225 40.9067 330.738 40.9067C331.819 40.9067 332.892 41.0035 333.957 41.1972C338.266 34.0809 347.512 31.8298 354.628 36.1383C359.082 38.8251 361.817 43.6177 361.89 48.8217H362.132C369.805 48.8217 376.025 55.0424 376.025 62.7154C376.025 70.3642 369.805 76.5849 362.132 76.5849H311.156C306.751 76.4639 303.241 72.8574 303.241 68.4278Z" fill="#F0F0F0"/>
<path d="M152.831 157.067C152.806 151.669 157.188 147.288 162.61 147.264C163.554 147.264 164.522 147.409 165.442 147.699C165.28 146.699 165.199 145.698 165.199 144.698C165.199 133.225 174.494 123.93 185.967 123.93C187.226 123.954 188.509 124.051 189.768 124.293C194.923 115.724 206.058 112.941 214.626 118.096C220.024 121.34 223.34 127.173 223.388 133.467H223.679C232.901 133.225 240.574 140.51 240.792 149.757C241.034 158.979 233.748 166.628 224.526 166.87C224.236 166.886 223.953 166.886 223.679 166.87H162.319C157.018 166.724 152.806 162.368 152.831 157.067Z" fill="#F0F0F0"/>
<path d="M196.085 90.6967C196.085 88.9297 194.657 87.5016 192.89 87.5016C192.583 87.5016 192.277 87.55 191.97 87.6468C192.019 87.308 192.043 86.9772 192.043 86.6544C192.043 82.9027 189.017 79.877 185.265 79.877C184.846 79.877 184.434 79.9174 184.031 79.9981C182.337 77.1903 178.682 76.3189 175.898 78.0132C174.155 79.0783 173.066 80.942 173.042 82.9995H172.945C169.944 82.9995 167.499 85.42 167.499 88.4456C167.499 91.447 169.944 93.8917 172.945 93.8917H192.987C194.705 93.8433 196.085 92.4152 196.085 90.6967Z" fill="#F0F0F0"/>
<path d="M79.5862 187.831C79.5862 186.064 81.0143 184.636 82.7813 184.636C83.104 184.636 83.4106 184.676 83.7011 184.757C83.6527 184.434 83.6285 184.111 83.6285 183.789C83.6285 180.037 86.6783 177.011 90.4059 177.011C90.8254 177.011 91.245 177.052 91.6645 177.132C93.3589 174.325 96.9896 173.453 99.7974 175.148C101.54 176.213 102.605 178.076 102.629 180.134H102.726C105.752 180.134 108.197 182.554 108.197 185.58C108.197 188.581 105.752 191.026 102.726 191.026H82.7087C80.9659 190.978 79.5862 189.574 79.5862 187.831Z" fill="#F0F0F0"/>
<path d="M379.39 198.264C379.39 196.497 380.818 195.069 382.585 195.069C382.908 195.069 383.222 195.117 383.529 195.214C383.464 194.875 383.432 194.544 383.432 194.222C383.432 190.494 386.482 187.444 390.21 187.444C390.629 187.444 391.049 187.484 391.468 187.565C393.163 184.782 396.793 183.886 399.601 185.58C401.344 186.645 402.409 188.533 402.433 190.567H402.53C405.556 190.567 408 193.011 408 196.013C408 199.014 405.556 201.459 402.53 201.459H382.512C380.77 201.41 379.39 200.007 379.39 198.264Z" fill="#F0F0F0"/>
<path d="M266.28 372.709C380.334 372.709 472.773 378.107 472.773 384.764C472.773 391.42 380.334 396.818 266.28 396.818C152.226 396.818 59.7623 391.42 59.7623 384.764C59.7623 378.107 152.226 372.709 266.28 372.709Z" fill="#F5F5F5"/>
<path d="M414.1 70.3403L368.57 139.664L366.561 142.713L362.616 144.553L221.67 210.052L235.612 257.736L238.783 268.652L227.745 277.778L132.668 370.168H54.0015L196.255 252.023L187.638 205.114L185.29 192.358L196.303 187.275L346.495 118.121L395.414 57.6085L382.295 55.0185L423.54 37.8813L421.434 82.5154L414.1 70.3403Z" fill="#263238"/>
<path opacity="0.6" d="M414.1 70.3403L368.57 139.664L366.561 142.713L362.616 144.553L221.67 210.052L235.612 257.736L238.783 268.652L227.745 277.778L132.668 370.168H54.0015L196.255 252.023L187.638 205.114L185.29 192.358L196.303 187.275L346.495 118.121L395.414 57.6085L382.295 55.0185L423.54 37.8813L421.434 82.5154L414.1 70.3403Z" fill="#FAFAFA"/>
<path d="M314.883 365.86H390.306C391.033 365.86 391.638 366.441 391.638 367.191V384.377C391.638 385.127 391.033 385.732 390.306 385.732H314.883C314.157 385.732 313.552 385.127 313.552 384.377V367.191C313.552 366.441 314.157 365.86 314.883 365.86Z" fill="#6202C0"/>
<path opacity="0.2" d="M317.038 366.997H320.136V384.764H317.038V366.997Z" fill="black"/>
<path opacity="0.2" d="M324.904 366.925H327.155V384.667H324.904V366.925Z" fill="black"/>
<path opacity="0.2" d="M332.481 366.997H333.618V384.764H332.481V366.997Z" fill="black"/>
<path opacity="0.2" d="M341.775 366.925H342.332V384.667H341.775V366.925Z" fill="black"/>
<path opacity="0.2" d="M388.152 384.667H385.054V366.925H388.152V384.667Z" fill="black"/>
<path opacity="0.2" d="M380.285 384.764H378.034V366.997H380.285V384.764Z" fill="black"/>
<path opacity="0.2" d="M372.709 384.667H371.596V366.925H372.709V384.667Z" fill="black"/>
<path opacity="0.2" d="M363.439 384.764H362.858V366.997H363.439V384.764Z" fill="black"/>
<path opacity="0.2" d="M352.74 384.764H352.45V366.997H352.74V384.764Z" fill="black"/>
<path opacity="0.2" d="M389.556 368.885H315.803C315.271 368.885 314.859 368.449 314.859 367.941C314.859 367.433 315.295 366.997 315.803 366.997H389.556C390.064 366.997 390.5 367.409 390.5 367.941C390.5 368.449 390.089 368.861 389.58 368.885C389.564 368.885 389.556 368.885 389.556 368.885Z" fill="white"/>
<path d="M317.013 346.036H392.436C393.163 346.036 393.768 346.641 393.768 347.367V364.553C393.768 365.303 393.163 365.908 392.436 365.908H317.013C316.287 365.908 315.682 365.303 315.682 364.553V347.367C315.682 346.641 316.287 346.036 317.013 346.036Z" fill="#6202C0"/>
<path opacity="0.2" d="M319.168 347.173H322.266V364.94H319.168V347.173Z" fill="black"/>
<path opacity="0.2" d="M327.059 347.101H329.285V364.843H327.059V347.101Z" fill="black"/>
<path opacity="0.2" d="M334.635 347.173H335.748V364.94H334.635V347.173Z" fill="black"/>
<path opacity="0.2" d="M343.905 347.101H344.462V364.843H343.905V347.101Z" fill="black"/>
<path opacity="0.2" d="M390.282 364.843H387.208V347.076H390.282V364.843Z" fill="black"/>
<path opacity="0.2" d="M382.416 364.916H380.164V347.173H382.416V364.916Z" fill="black"/>
<path opacity="0.2" d="M374.839 364.843H373.702V347.076H374.839V364.843Z" fill="black"/>
<path opacity="0.2" d="M365.569 364.916H364.988V347.173H365.569V364.916Z" fill="black"/>
<path opacity="0.2" d="M354.87 364.916H354.58V347.173H354.87V364.916Z" fill="black"/>
<path opacity="0.2" d="M391.686 349.061H317.933C317.425 349.037 316.989 348.626 316.989 348.117C316.989 347.609 317.401 347.173 317.933 347.173H391.686C392.194 347.173 392.606 347.585 392.63 348.093C392.63 348.109 392.63 348.117 392.63 348.117C392.63 348.626 392.194 349.061 391.686 349.061Z" fill="white"/>
<path d="M317.013 326.212H392.436C393.163 326.212 393.768 326.817 393.768 327.543V344.729C393.768 345.479 393.163 346.084 392.436 346.084H317.013C316.287 346.084 315.682 345.479 315.682 344.729V327.543C315.682 326.817 316.287 326.212 317.013 326.212Z" fill="#6202C0"/>
<path opacity="0.2" d="M319.168 327.349H322.266V345.091H319.168V327.349Z" fill="black"/>
<path opacity="0.2" d="M327.059 327.252H329.285V345.019H327.059V327.252Z" fill="black"/>
<path opacity="0.2" d="M334.635 327.349H335.748V345.091H334.635V327.349Z" fill="black"/>
<path opacity="0.2" d="M343.905 327.252H344.462V345.019H343.905V327.252Z" fill="black"/>
<path opacity="0.2" d="M390.282 345.019H387.208V327.252H390.282V345.019Z" fill="black"/>
<path opacity="0.2" d="M382.416 345.091H380.164V327.349H382.416V345.091Z" fill="black"/>
<path opacity="0.2" d="M374.839 345.019H373.702V327.252H374.839V345.019Z" fill="black"/>
<path opacity="0.2" d="M365.569 345.091H364.988V327.349H365.569V345.091Z" fill="black"/>
<path opacity="0.2" d="M354.87 345.091H354.58V327.349H354.87V345.091Z" fill="black"/>
<path opacity="0.2" d="M391.686 329.213H317.933C317.401 329.213 316.989 328.801 316.989 328.293C316.989 327.761 317.425 327.349 317.933 327.349H391.686C392.194 327.349 392.63 327.761 392.63 328.293C392.63 328.801 392.219 329.213 391.71 329.213C391.694 329.213 391.686 329.213 391.686 329.213Z" fill="white"/>
<path d="M314.883 306.388H390.306C391.033 306.388 391.638 306.969 391.638 307.719V324.905C391.638 325.655 391.033 326.26 390.306 326.26H314.883C314.157 326.26 313.552 325.655 313.552 324.905V307.719C313.552 306.969 314.157 306.388 314.883 306.388Z" fill="#6202C0"/>
<path opacity="0.2" d="M317.038 307.525H320.136V325.291H317.038V307.525Z" fill="black"/>
<path opacity="0.2" d="M324.904 307.453H327.155V325.195H324.904V307.453Z" fill="black"/>
<path opacity="0.2" d="M332.481 307.525H333.618V325.291H332.481V307.525Z" fill="black"/>
<path opacity="0.2" d="M341.775 307.453H342.332V325.195H341.775V307.453Z" fill="black"/>
<path opacity="0.2" d="M388.152 325.195H385.054V307.428H388.152V325.195Z" fill="black"/>
<path opacity="0.2" d="M380.285 325.267H378.034V307.525H380.285V325.267Z" fill="black"/>
<path opacity="0.2" d="M372.709 325.195H371.596V307.428H372.709V325.195Z" fill="black"/>
<path opacity="0.2" d="M363.439 325.267H362.858V307.525H363.439V325.267Z" fill="black"/>
<path opacity="0.2" d="M352.74 325.267H352.45V307.525H352.74V325.267Z" fill="black"/>
<path opacity="0.2" d="M389.556 309.389H315.803C315.295 309.389 314.859 308.977 314.859 308.469C314.859 307.936 315.271 307.525 315.803 307.525H389.556C390.064 307.525 390.476 307.936 390.5 308.445C390.5 308.445 390.5 308.453 390.5 308.469C390.5 308.977 390.064 309.389 389.556 309.389Z" fill="white"/>
<path d="M311.688 286.563H387.111C387.837 286.563 388.443 287.144 388.443 287.895V305.08C388.443 305.831 387.837 306.436 387.111 306.436H311.688C310.962 306.436 310.357 305.831 310.357 305.08V287.895C310.357 287.144 310.962 286.563 311.688 286.563Z" fill="#6202C0"/>
<path opacity="0.2" d="M313.843 287.701H316.941V305.443H313.843V287.701Z" fill="black"/>
<path opacity="0.2" d="M321.709 287.604H323.96V305.371H321.709V287.604Z" fill="black"/>
<path opacity="0.2" d="M329.285 287.701H330.423V305.443H329.285V287.701Z" fill="black"/>
<path opacity="0.2" d="M338.58 287.604H339.137V305.371H338.58V287.604Z" fill="black"/>
<path opacity="0.2" d="M384.957 305.371H381.859V287.604H384.957V305.371Z" fill="black"/>
<path opacity="0.2" d="M377.09 305.443H374.839V287.701H377.09V305.443Z" fill="black"/>
<path opacity="0.2" d="M369.514 305.371H368.401V287.604H369.514V305.371Z" fill="black"/>
<path opacity="0.2" d="M360.244 305.443H359.687V287.701H360.244V305.443Z" fill="black"/>
<path opacity="0.2" d="M349.545 305.443H349.255V287.701H349.545V305.443Z" fill="black"/>
<path opacity="0.2" d="M386.361 289.565H312.608C312.1 289.565 311.664 289.153 311.664 288.645C311.664 288.645 311.664 288.637 311.664 288.621C311.664 288.113 312.076 287.701 312.608 287.701H386.361C386.869 287.701 387.305 288.113 387.305 288.621C387.305 289.153 386.893 289.565 386.385 289.565C386.369 289.565 386.361 289.565 386.361 289.565Z" fill="white"/>
<path d="M314.883 266.716H390.306C391.033 266.716 391.638 267.321 391.638 268.071V285.257C391.638 286.007 391.033 286.588 390.306 286.588H314.883C314.157 286.588 313.552 286.007 313.552 285.257V268.071C313.552 267.321 314.157 266.716 314.883 266.716Z" fill="#6202C0"/>
<path opacity="0.2" d="M317.038 267.877H320.136V285.62H317.038V267.877Z" fill="black"/>
<path opacity="0.2" d="M324.904 267.781H327.155V285.547H324.904V267.781Z" fill="black"/>
<path opacity="0.2" d="M332.481 267.877H333.618V285.62H332.481V267.877Z" fill="black"/>
<path opacity="0.2" d="M341.775 267.781H342.332V285.547H341.775V267.781Z" fill="black"/>
<path opacity="0.2" d="M388.152 285.523H385.054V267.781H388.152V285.523Z" fill="black"/>
<path opacity="0.2" d="M380.285 285.62H378.034V267.853H380.285V285.62Z" fill="black"/>
<path opacity="0.2" d="M372.709 285.523H371.596V267.781H372.709V285.523Z" fill="black"/>
<path opacity="0.2" d="M363.439 285.62H362.858V267.853H363.439V285.62Z" fill="black"/>
<path opacity="0.2" d="M352.74 285.62H352.45V267.853H352.74V285.62Z" fill="black"/>
<path opacity="0.2" d="M389.556 269.741H315.803C315.271 269.741 314.859 269.33 314.859 268.821C314.859 268.289 315.271 267.877 315.803 267.877H389.556C390.064 267.877 390.476 268.289 390.5 268.797C390.5 268.797 390.5 268.805 390.5 268.821C390.5 269.33 390.089 269.741 389.58 269.741C389.564 269.741 389.556 269.741 389.556 269.741Z" fill="white"/>
<path d="M314.883 246.892H390.306C391.033 246.892 391.638 247.497 391.638 248.247V265.433C391.638 266.183 391.033 266.788 390.306 266.788H314.883C314.157 266.788 313.552 266.183 313.552 265.433V248.247C313.552 247.497 314.157 246.892 314.883 246.892Z" fill="#6202C0"/>
<path opacity="0.2" d="M317.038 248.054H320.136V265.796H317.038V248.054Z" fill="black"/>
<path opacity="0.2" d="M324.904 247.957H327.155V265.723H324.904V247.957Z" fill="black"/>
<path opacity="0.2" d="M332.481 248.054H333.618V265.796H332.481V248.054Z" fill="black"/>
<path opacity="0.2" d="M341.775 247.957H342.332V265.723H341.775V247.957Z" fill="black"/>
<path opacity="0.2" d="M388.152 265.723H385.054V247.957H388.152V265.723Z" fill="black"/>
<path opacity="0.2" d="M380.285 265.796H378.034V248.054H380.285V265.796Z" fill="black"/>
<path opacity="0.2" d="M372.709 265.723H371.596V247.957H372.709V265.723Z" fill="black"/>
<path opacity="0.2" d="M363.439 265.796H362.858V248.054H363.439V265.796Z" fill="black"/>
<path opacity="0.2" d="M352.74 265.796H352.45V248.054H352.74V265.796Z" fill="black"/>
<path opacity="0.2" d="M389.556 249.917H315.803C315.271 249.917 314.859 249.506 314.859 248.974C314.859 248.465 315.295 248.054 315.803 248.054H389.556C390.064 248.054 390.5 248.465 390.5 248.974C390.5 249.506 390.089 249.917 389.556 249.917Z" fill="white"/>
<path d="M318.079 227.068H393.501C394.228 227.068 394.833 227.673 394.833 228.423V245.609C394.833 246.335 394.228 246.94 393.501 246.94H318.079C317.352 246.94 316.747 246.335 316.747 245.609V228.423C316.747 227.673 317.352 227.068 318.079 227.068Z" fill="#6202C0"/>
<path opacity="0.2" d="M320.233 228.229H323.331V245.972H320.233V228.229Z" fill="black"/>
<path opacity="0.2" d="M328.124 228.133H330.351V245.899H328.124V228.133Z" fill="black"/>
<path opacity="0.2" d="M335.7 228.229H336.813V245.972H335.7V228.229Z" fill="black"/>
<path opacity="0.2" d="M344.97 228.133H345.527V245.899H344.97V228.133Z" fill="black"/>
<path opacity="0.2" d="M391.347 245.875H388.273V228.133H391.347V245.875Z" fill="black"/>
<path opacity="0.2" d="M383.481 245.972H381.23V228.229H383.481V245.972Z" fill="black"/>
<path opacity="0.2" d="M375.904 245.875H374.791V228.133H375.904V245.875Z" fill="black"/>
<path opacity="0.2" d="M366.634 245.972H366.053V228.229H366.634V245.972Z" fill="black"/>
<path opacity="0.2" d="M355.935 245.972H355.669V228.229H355.935V245.972Z" fill="black"/>
<path opacity="0.2" d="M392.751 230.069H318.998C318.49 230.069 318.054 229.658 318.054 229.125C318.054 228.617 318.466 228.181 318.998 228.181H392.751C393.259 228.181 393.695 228.593 393.695 229.125C393.695 229.633 393.284 230.069 392.751 230.069Z" fill="white"/>
<path d="M312.753 207.244H388.176C388.902 207.244 389.508 207.849 389.508 208.599V225.785C389.508 226.511 388.902 227.116 388.176 227.116H312.753C312.027 227.116 311.422 226.511 311.422 225.785V208.599C311.422 207.849 312.027 207.244 312.753 207.244Z" fill="#6202C0"/>
<path opacity="0.2" d="M314.908 208.406H318.006V226.148H314.908V208.406Z" fill="black"/>
<path opacity="0.2" d="M322.774 208.309H325.025V226.051H322.774V208.309Z" fill="black"/>
<path opacity="0.2" d="M330.35 208.406H331.488V226.148H330.35V208.406Z" fill="black"/>
<path opacity="0.2" d="M339.645 208.309H340.202V226.051H339.645V208.309Z" fill="black"/>
<path opacity="0.2" d="M386.022 226.051H382.924V208.309H386.022V226.051Z" fill="black"/>
<path opacity="0.2" d="M378.156 226.148H375.904V208.381H378.156V226.148Z" fill="black"/>
<path opacity="0.2" d="M370.579 226.051H369.466V208.309H370.579V226.051Z" fill="black"/>
<path opacity="0.2" d="M361.309 226.148H360.728V208.381H361.309V226.148Z" fill="black"/>
<path opacity="0.2" d="M350.61 226.148H350.32V208.381H350.61V226.148Z" fill="black"/>
<path opacity="0.2" d="M387.426 210.27H313.673C313.165 210.27 312.729 209.858 312.729 209.326C312.729 208.817 313.141 208.406 313.673 208.406H387.426C387.934 208.406 388.346 208.793 388.37 209.326C388.37 209.858 387.934 210.27 387.426 210.27Z" fill="white"/>
<path d="M310.623 187.42H386.046C386.772 187.42 387.378 188.025 387.378 188.751V205.961C387.378 206.687 386.772 207.292 386.046 207.292H310.623C309.897 207.292 309.292 206.687 309.292 205.961V188.751C309.292 188.025 309.897 187.42 310.623 187.42Z" fill="#6202C0"/>
<path opacity="0.2" d="M312.778 188.557H315.876V206.324H312.778V188.557Z" fill="black"/>
<path opacity="0.2" d="M320.644 188.485H322.895V206.227H320.644V188.485Z" fill="black"/>
<path opacity="0.2" d="M328.22 188.557H329.358V206.324H328.22V188.557Z" fill="black"/>
<path opacity="0.2" d="M337.515 188.485H338.072V206.227H337.515V188.485Z" fill="black"/>
<path opacity="0.2" d="M383.892 206.227H380.794V188.46H383.892V206.227Z" fill="black"/>
<path opacity="0.2" d="M376.025 206.324H373.774V188.557H376.025V206.324Z" fill="black"/>
<path opacity="0.2" d="M368.425 206.227H367.312V188.46H368.425V206.227Z" fill="black"/>
<path opacity="0.2" d="M359.179 206.324H358.622V188.557H359.179V206.324Z" fill="black"/>
<path opacity="0.2" d="M348.48 206.324H348.19V188.557H348.48V206.324Z" fill="black"/>
<path opacity="0.2" d="M385.296 190.445H311.543C311.035 190.445 310.599 190.034 310.599 189.525C310.599 189.525 310.599 189.517 310.599 189.501C310.599 188.993 311.011 188.581 311.519 188.557C311.519 188.557 311.527 188.557 311.543 188.557H385.296C385.804 188.557 386.216 188.969 386.24 189.477C386.24 189.493 386.24 189.501 386.24 189.501C386.24 190.009 385.828 190.445 385.32 190.445C385.304 190.445 385.296 190.445 385.296 190.445Z" fill="white"/>
<path d="M218.983 365.86H294.382C295.132 365.86 295.737 366.441 295.737 367.191V384.377C295.737 385.127 295.132 385.732 294.382 385.732H218.983C218.233 385.732 217.652 385.127 217.652 384.377V367.191C217.652 366.441 218.233 365.86 218.983 365.86Z" fill="#6202C0"/>
<path opacity="0.2" d="M221.137 366.997H224.211V384.764H221.137V366.997Z" fill="black"/>
<path opacity="0.2" d="M229.004 366.925H231.255V384.667H229.004V366.925Z" fill="black"/>
<path opacity="0.2" d="M236.58 366.997H237.694V384.764H236.58V366.997Z" fill="black"/>
<path opacity="0.2" d="M245.851 366.925H246.407V384.667H245.851V366.925Z" fill="black"/>
<path opacity="0.2" d="M292.252 384.667H289.154V366.925H292.252V384.667Z" fill="black"/>
<path opacity="0.2" d="M284.361 384.764H282.134V366.997H284.361V384.764Z" fill="black"/>
<path opacity="0.2" d="M276.785 384.667H275.671V366.925H276.785V384.667Z" fill="black"/>
<path opacity="0.2" d="M267.514 384.764H266.957V366.997H267.514V384.764Z" fill="black"/>
<path opacity="0.2" d="M256.816 384.764H256.549V366.997H256.816V384.764Z" fill="black"/>
<path opacity="0.2" d="M293.656 368.885H219.879C219.37 368.885 218.959 368.474 218.959 367.965C218.959 367.949 218.959 367.941 218.959 367.941C218.959 367.409 219.37 366.997 219.879 366.997H293.656C294.164 366.997 294.575 367.433 294.575 367.941C294.575 368.449 294.164 368.885 293.656 368.885Z" fill="white"/>
<path d="M215.788 346.036H291.187C291.937 346.036 292.518 346.641 292.518 347.367V364.553C292.518 365.303 291.937 365.908 291.187 365.908H215.788C215.038 365.908 214.433 365.303 214.433 364.553V347.367C214.433 346.641 215.038 346.036 215.788 346.036Z" fill="#6202C0"/>
<path opacity="0.2" d="M217.942 347.173H221.016V364.94H217.942V347.173Z" fill="black"/>
<path opacity="0.2" d="M225.809 347.101H228.06V364.843H225.809V347.101Z" fill="black"/>
<path opacity="0.2" d="M233.385 347.173H234.498V364.94H233.385V347.173Z" fill="black"/>
<path opacity="0.2" d="M242.656 347.101H243.212V364.843H242.656V347.101Z" fill="black"/>
<path opacity="0.2" d="M289.057 364.843H285.958V347.076H289.057V364.843Z" fill="black"/>
<path opacity="0.2" d="M281.166 364.916H278.939V347.173H281.166V364.916Z" fill="black"/>
<path opacity="0.2" d="M273.59 364.843H272.476V347.076H273.59V364.843Z" fill="black"/>
<path opacity="0.2" d="M264.319 364.916H263.738V347.173H264.319V364.916Z" fill="black"/>
<path opacity="0.2" d="M253.62 364.916H253.354V347.173H253.62V364.916Z" fill="black"/>
<path opacity="0.2" d="M290.436 349.061H216.684C216.175 349.037 215.764 348.626 215.74 348.117C215.74 347.609 216.175 347.173 216.684 347.173H290.436C290.945 347.173 291.38 347.585 291.38 348.093C291.38 348.109 291.38 348.117 291.38 348.117C291.38 348.626 290.969 349.061 290.436 349.061Z" fill="white"/>
<path d="M218.983 326.212H294.382C295.132 326.212 295.737 326.817 295.737 327.543V344.729C295.737 345.479 295.132 346.084 294.382 346.084H218.983C218.233 346.084 217.652 345.479 217.652 344.729V327.543C217.652 326.817 218.233 326.212 218.983 326.212Z" fill="#6202C0"/>
<path opacity="0.2" d="M221.137 327.349H224.211V345.091H221.137V327.349Z" fill="black"/>
<path opacity="0.2" d="M229.004 327.252H231.255V345.019H229.004V327.252Z" fill="black"/>
<path opacity="0.2" d="M236.58 327.349H237.694V345.091H236.58V327.349Z" fill="black"/>
<path opacity="0.2" d="M245.851 327.252H246.407V345.019H245.851V327.252Z" fill="black"/>
<path opacity="0.2" d="M292.252 345.019H289.154V327.252H292.252V345.019Z" fill="black"/>
<path opacity="0.2" d="M284.361 345.091H282.134V327.349H284.361V345.091Z" fill="black"/>
<path opacity="0.2" d="M276.785 345.019H275.671V327.252H276.785V345.019Z" fill="black"/>
<path opacity="0.2" d="M267.514 345.091H266.957V327.349H267.514V345.091Z" fill="black"/>
<path opacity="0.2" d="M256.816 345.091H256.549V327.349H256.816V345.091Z" fill="black"/>
<path opacity="0.2" d="M293.656 329.213H219.879C219.37 329.237 218.959 328.826 218.959 328.317C218.959 328.301 218.959 328.293 218.959 328.293C218.959 327.761 219.37 327.349 219.879 327.349H293.656C294.164 327.349 294.575 327.761 294.575 328.293C294.575 328.801 294.164 329.213 293.656 329.213Z" fill="white"/>
<path d="M216.853 306.388H292.252C293.002 306.388 293.583 306.969 293.583 307.719V324.905C293.583 325.655 293.002 326.26 292.252 326.26H216.853C216.103 326.26 215.498 325.655 215.498 324.905V307.719C215.498 306.969 216.103 306.388 216.853 306.388Z" fill="#6202C0"/>
<path opacity="0.2" d="M219.007 307.525H222.081V325.291H219.007V307.525Z" fill="black"/>
<path opacity="0.2" d="M226.874 307.453H229.125V325.195H226.874V307.453Z" fill="black"/>
<path opacity="0.2" d="M234.45 307.525H235.564V325.291H234.45V307.525Z" fill="black"/>
<path opacity="0.2" d="M243.721 307.453H244.277V325.195H243.721V307.453Z" fill="black"/>
<path opacity="0.2" d="M290.122 325.195H287.023V307.428H290.122V325.195Z" fill="black"/>
<path opacity="0.2" d="M282.231 325.267H280.004V307.525H282.231V325.267Z" fill="black"/>
<path opacity="0.2" d="M274.655 325.195H273.517V307.428H274.655V325.195Z" fill="black"/>
<path opacity="0.2" d="M265.384 325.267H264.803V307.525H265.384V325.267Z" fill="black"/>
<path opacity="0.2" d="M254.686 325.267H254.419V307.525H254.686V325.267Z" fill="black"/>
<path opacity="0.2" d="M291.501 309.389H217.749C217.24 309.389 216.829 308.977 216.805 308.469C216.805 307.936 217.24 307.525 217.749 307.525H291.501C292.034 307.525 292.445 307.936 292.445 308.445C292.445 308.461 292.445 308.469 292.445 308.469C292.445 308.977 292.034 309.389 291.501 309.389Z" fill="white"/>
<path d="M216.853 286.563H292.252C293.002 286.563 293.583 287.144 293.583 287.895V305.08C293.583 305.831 293.002 306.436 292.252 306.436H216.853C216.103 306.436 215.498 305.831 215.498 305.08V287.895C215.498 287.144 216.103 286.563 216.853 286.563Z" fill="#6202C0"/>
<path opacity="0.2" d="M219.007 287.701H222.081V305.443H219.007V287.701Z" fill="black"/>
<path opacity="0.2" d="M226.874 287.604H229.125V305.371H226.874V287.604Z" fill="black"/>
<path opacity="0.2" d="M234.45 287.701H235.564V305.443H234.45V287.701Z" fill="black"/>
<path opacity="0.2" d="M243.721 287.604H244.277V305.371H243.721V287.604Z" fill="black"/>
<path opacity="0.2" d="M290.122 305.371H287.023V287.604H290.122V305.371Z" fill="black"/>
<path opacity="0.2" d="M282.231 305.443H280.004V287.701H282.231V305.443Z" fill="black"/>
<path opacity="0.2" d="M274.655 305.371H273.517V287.604H274.655V305.371Z" fill="black"/>
<path opacity="0.2" d="M265.384 305.443H264.803V287.701H265.384V305.443Z" fill="black"/>
<path opacity="0.2" d="M254.686 305.443H254.419V287.701H254.686V305.443Z" fill="black"/>
<path opacity="0.2" d="M291.501 289.565H217.749C217.24 289.565 216.829 289.153 216.805 288.645C216.805 288.645 216.805 288.637 216.805 288.621C216.829 288.113 217.24 287.701 217.749 287.701H291.501C292.034 287.701 292.445 288.113 292.445 288.621C292.445 289.153 292.034 289.565 291.526 289.565C291.509 289.565 291.501 289.565 291.501 289.565Z" fill="white"/>
<path d="M216.853 266.716H292.252C293.002 266.716 293.583 267.321 293.583 268.071V285.257C293.583 286.007 293.002 286.588 292.252 286.588H216.853C216.103 286.588 215.498 286.007 215.498 285.257V268.071C215.498 267.321 216.103 266.716 216.853 266.716Z" fill="#6202C0"/>
<path opacity="0.2" d="M219.007 267.877H222.081V285.62H219.007V267.877Z" fill="black"/>
<path opacity="0.2" d="M226.874 267.781H229.125V285.547H226.874V267.781Z" fill="black"/>
<path opacity="0.2" d="M234.45 267.877H235.564V285.62H234.45V267.877Z" fill="black"/>
<path opacity="0.2" d="M243.721 267.781H244.277V285.547H243.721V267.781Z" fill="black"/>
<path opacity="0.2" d="M290.122 285.523H287.023V267.781H290.122V285.523Z" fill="black"/>
<path opacity="0.2" d="M282.231 285.62H280.004V267.853H282.231V285.62Z" fill="black"/>
<path opacity="0.2" d="M274.655 285.523H273.517V267.781H274.655V285.523Z" fill="black"/>
<path opacity="0.2" d="M265.384 285.62H264.803V267.853H265.384V285.62Z" fill="black"/>
<path opacity="0.2" d="M254.686 285.62H254.419V267.853H254.686V285.62Z" fill="black"/>
<path opacity="0.2" d="M291.501 269.741H217.749C217.24 269.765 216.829 269.33 216.805 268.821C216.805 268.289 217.24 267.877 217.749 267.877H291.501C292.034 267.877 292.445 268.289 292.445 268.797C292.445 268.797 292.445 268.805 292.445 268.821C292.445 269.33 292.034 269.741 291.526 269.741C291.509 269.741 291.501 269.741 291.501 269.741Z" fill="white"/>
<path d="M217.773 226.85H293.172C293.922 226.85 294.527 227.455 294.527 228.206V245.391C294.527 246.142 293.922 246.722 293.172 246.722H217.773C217.022 246.722 216.417 246.142 216.417 245.391V228.206C216.417 227.455 217.022 226.85 217.773 226.85Z" fill="#6202C0"/>
<path opacity="0.2" d="M219.927 228.012H223.001V245.754H219.927V228.012Z" fill="black"/>
<path opacity="0.2" d="M227.794 227.915H230.045V245.682H227.794V227.915Z" fill="black"/>
<path opacity="0.2" d="M235.37 228.012H236.483V245.754H235.37V228.012Z" fill="black"/>
<path opacity="0.2" d="M244.64 227.915H245.197V245.682H244.64V227.915Z" fill="black"/>
<path opacity="0.2" d="M291.041 245.657H287.943V227.915H291.041V245.657Z" fill="black"/>
<path opacity="0.2" d="M283.175 245.754H280.924V228.012H283.175V245.754Z" fill="black"/>
<path opacity="0.2" d="M275.574 245.657H274.461V227.915H275.574V245.657Z" fill="black"/>
<path opacity="0.2" d="M266.304 245.754H265.747V228.012H266.304V245.754Z" fill="black"/>
<path opacity="0.2" d="M255.63 245.754H255.339V228.012H255.63V245.754Z" fill="black"/>
<path opacity="0.2" d="M292.421 229.876H218.693C218.16 229.9 217.749 229.464 217.749 228.956C217.749 228.423 218.16 228.012 218.693 228.012H292.421C292.954 228.012 293.365 228.423 293.389 228.956C293.389 229.464 292.954 229.876 292.445 229.876C292.445 229.876 292.437 229.876 292.421 229.876Z" fill="white"/>
<path d="M218.983 246.892H294.382C295.132 246.892 295.737 247.497 295.737 248.247V265.433C295.737 266.183 295.132 266.788 294.382 266.788H218.983C218.233 266.788 217.652 266.183 217.652 265.433V248.247C217.652 247.497 218.233 246.892 218.983 246.892Z" fill="#6202C0"/>
<path opacity="0.2" d="M221.137 248.054H224.211V265.796H221.137V248.054Z" fill="black"/>
<path opacity="0.2" d="M229.004 247.957H231.255V265.723H229.004V247.957Z" fill="black"/>
<path opacity="0.2" d="M236.58 248.054H237.694V265.796H236.58V248.054Z" fill="black"/>
<path opacity="0.2" d="M245.851 247.957H246.407V265.723H245.851V247.957Z" fill="black"/>
<path opacity="0.2" d="M292.252 265.723H289.154V247.957H292.252V265.723Z" fill="black"/>
<path opacity="0.2" d="M284.361 265.796H282.134V248.054H284.361V265.796Z" fill="black"/>
<path opacity="0.2" d="M276.785 265.723H275.671V247.957H276.785V265.723Z" fill="black"/>
<path opacity="0.2" d="M267.514 265.796H266.957V248.054H267.514V265.796Z" fill="black"/>
<path opacity="0.2" d="M256.816 265.796H256.549V248.054H256.816V265.796Z" fill="black"/>
<path opacity="0.2" d="M293.656 249.917H219.879C219.37 249.917 218.959 249.506 218.959 248.998C218.959 248.982 218.959 248.974 218.959 248.974C218.959 248.465 219.37 248.054 219.879 248.054H293.656C294.164 248.054 294.575 248.465 294.575 248.974C294.575 249.506 294.164 249.917 293.656 249.917Z" fill="white"/>
<path d="M266.352 214.409L263.98 219.08L261.536 223.824L257.3 222.275L259.43 218.112L262.117 212.859L266.352 214.409Z" fill="#FEDCBD"/>
<path opacity="0.2" d="M266.352 214.409L263.98 219.08L259.43 218.112L262.116 212.859L266.352 214.409Z" fill="black"/>
<path d="M359.179 188.025C358.912 188.049 358.67 187.831 358.646 187.589C358.501 186.524 344.51 82.1278 327.615 36.3319C327.47 36.0656 327.591 35.751 327.833 35.63C328.099 35.4847 328.414 35.5815 328.559 35.8478C328.575 35.8801 328.592 35.9204 328.608 35.9688C345.551 81.8374 359.566 186.403 359.711 187.468C359.735 187.759 359.542 188.025 359.251 188.073L359.179 188.025Z" fill="#263238"/>
<path d="M332.19 185.024L336.741 184.854L337.612 174.349L333.086 174.519L332.19 185.024Z" fill="#FEDCBD"/>
<path d="M337.152 182.458L332.214 182.288C332.021 182.288 331.875 182.409 331.803 182.603L330.738 186.572C330.641 186.935 330.859 187.299 331.222 187.395C331.27 187.395 331.319 187.395 331.367 187.395C333.158 187.395 335.748 187.395 337.975 187.468C340.613 187.565 342.235 187.468 345.358 187.516C347.197 187.589 347.802 185.725 347.028 185.532C343.518 184.66 341.219 184.805 338.241 182.845C337.902 182.603 337.539 182.482 337.152 182.458Z" fill="#263238"/>
<path opacity="0.2" d="M337.612 174.349L337.152 179.771L332.626 179.94L333.086 174.519L337.612 174.349Z" fill="black"/>
<path d="M330.35 146.997C331.512 149.2 331.585 172.316 331.585 178.173H339.427C340.444 172.098 345.43 139.445 338.362 134.774C330.568 129.618 310.793 131.385 310.793 131.385L309.365 128.505L306.509 122.768L290.146 128.892L286.588 130.199L285.111 130.756H284.99C284.99 130.756 284.99 130.925 284.99 131.191C285.039 131.821 285.184 133.128 285.45 134.725C285.757 136.662 286.192 138.566 286.757 140.438C288.258 145.376 290.945 150.023 295.616 148.474C295.81 148.401 296.028 148.329 296.221 148.232C296.609 148.062 297.02 147.893 297.456 147.748C301.183 146.537 305.056 145.787 308.977 145.472C318.853 144.528 329.479 145.279 330.35 146.997Z" fill="#263238"/>
<path d="M339.766 178.851L330.617 179.093L330.568 176.14L340.638 175.729L339.766 178.851Z" fill="#6202C0"/>
<path d="M262.334 221.549H256.816C256.622 221.549 256.477 221.67 256.428 221.864L255.484 225.858C255.412 226.221 255.63 226.584 255.993 226.656C256.041 226.672 256.089 226.681 256.138 226.681C257.929 226.681 259.212 226.535 261.463 226.535C262.843 226.535 266.982 226.681 268.918 226.681C270.854 226.681 271.048 224.793 270.322 224.623C266.836 223.873 264.222 222.832 263.109 221.815C262.891 221.622 262.625 221.525 262.334 221.549Z" fill="#263238"/>
<path d="M302.49 130.707L301.546 133.975C301.038 135.742 300.336 138.114 299.537 140.873L297.504 147.748C294.067 159.414 289.662 173.986 287.241 180.884C282.4 194.609 266.231 219.007 266.231 219.007L258.437 216.151C258.437 216.151 270.395 193.18 274.316 179.263C277.051 169.556 281.335 152.08 284.167 140.365L285.523 134.75C285.983 132.813 286.346 131.264 286.588 130.151C286.83 129.061 286.999 128.359 286.999 128.359L290.146 128.843L302.49 130.707Z" fill="#263238"/>
<path d="M267.079 219.516L257.905 216.151L258.946 213.416L268.724 216.393L267.079 219.516Z" fill="#6202C0"/>
<path opacity="0.2" d="M309.389 128.505L302.49 136.565L301.547 133.975L300.481 131.167L299.513 140.873L286.781 140.438L284.143 140.365L285.499 134.75C285.232 133.128 285.063 131.845 285.014 131.191L285.111 130.732L286.564 130.175C286.854 129.013 286.999 128.359 286.999 128.359L290.146 128.844L306.533 122.768L309.389 128.505Z" fill="black"/>
<path opacity="0.2" d="M309.026 145.496C304.645 145.787 300.336 146.707 296.246 148.256C296.028 148.328 295.834 148.425 295.616 148.474L296.56 143.923C296.56 143.923 304.524 143.536 309.026 145.496Z" fill="black"/>
<path d="M249.53 132.886L246.746 136.565L244.398 132.087C244.398 132.087 247.061 128.94 248.658 130.393L249.53 132.886Z" fill="#FEDCBD"/>
<path d="M242.51 138.235L241.808 133.661L244.398 132.015L246.746 136.565L242.51 138.235Z" fill="#FEDCBD"/>
<path d="M250.28 132.523L249.506 132.934L248.368 130.005L249.602 129.424L250.28 132.523Z" fill="white"/>
<path d="M281.287 105.946C280.883 106.656 280.472 107.334 280.052 107.979C278.971 109.722 277.85 111.44 276.688 113.135L275.72 114.539C274.727 115.942 273.686 117.322 272.597 118.678C272.041 119.38 271.484 120.057 270.854 120.735C270.209 121.461 269.531 122.139 268.821 122.768C266.11 125.092 263.109 127.077 259.914 128.65C256.816 130.248 253.62 131.603 250.329 132.717L248.925 129.618C250.329 128.771 251.757 127.924 253.136 127.028C254.516 126.133 255.896 125.237 257.227 124.293C258.558 123.373 259.865 122.405 261.1 121.437C262.326 120.485 263.48 119.452 264.561 118.339C266.594 115.967 268.458 113.425 270.056 110.738C271.847 107.979 274.098 103.138 275.841 100.403L281.287 105.946Z" fill="#263238"/>
<path opacity="0.2" d="M280.052 107.979C278.971 109.722 277.85 111.44 276.688 113.135C276.809 110.908 277.414 108.705 278.503 106.745C279.133 106.962 279.689 107.398 280.052 107.979Z" fill="black"/>
<path d="M341.122 94.4726L338.024 97.353L338.459 100.016C339.597 101.492 342.187 99.6525 342.792 99.1926C342.889 99.1119 342.994 99.0474 343.107 98.999L344.753 98.3454C345.358 98.1034 345.697 97.474 345.6 96.8447L345.261 94.8841C345.14 94.1337 344.438 93.6254 343.688 93.7223C343.671 93.7384 343.655 93.7465 343.639 93.7465L341.8 94.1095C341.533 94.1579 341.291 94.279 341.122 94.4726Z" fill="#FEDCBD"/>
<path d="M337.322 97.377L338.169 97.1592L338.653 100.233L337.322 100.572V97.377Z" fill="white"/>
<path d="M338.024 100.572C334.635 101.298 331.222 101.758 327.761 101.976C324.202 102.242 320.62 102.073 317.11 101.468C316.174 101.29 315.255 101.056 314.351 100.766C313.455 100.5 312.608 100.209 311.785 99.8946C310.139 99.2895 308.59 98.6359 306.993 97.9098L305.105 97.0626C303.677 96.4091 302.273 95.7313 300.845 95.0052C299.78 94.4969 298.787 93.9402 297.746 93.3834L300.506 86.8965C303.434 88.3488 306.896 90.3578 309.825 91.8101C312.584 93.2866 315.464 94.5211 318.442 95.5135C319.942 95.9008 321.451 96.1993 322.968 96.4091C324.566 96.6269 326.163 96.7479 327.785 96.8932C329.382 97.0142 331.052 97.0868 332.698 97.111C334.32 97.1352 336.014 97.1836 337.636 97.2078L338.024 100.572Z" fill="#263238"/>
<path opacity="0.2" d="M305.056 97.0626C303.628 96.409 302.224 95.7313 300.796 95.0051L300.239 91.9795C302.369 93.0929 304.088 94.8841 305.056 97.0626Z" fill="black"/>
<path d="M276.809 99.7976C278.552 104.13 279.956 108.608 280.996 113.159C281.771 116.354 284.482 119.549 284.942 122.478C285.402 125.721 286.031 128.916 286.854 132.063C290.122 130.32 299.949 128.166 306.533 124.608C306.799 98.079 299.683 87.7192 299.683 87.7192C297.875 88.1711 296.1 88.7439 294.358 89.4378L293.22 89.9219C290.041 91.4065 286.951 93.0605 283.949 94.8839C283.368 95.247 282.763 95.6101 282.207 95.949C279.302 97.8369 276.809 99.7976 276.809 99.7976Z" fill="#6202C0"/>
<path opacity="0.7" d="M276.809 99.7976C278.552 104.13 279.956 108.608 280.996 113.159C281.771 116.354 284.482 119.549 284.942 122.478C285.402 125.721 286.031 128.916 286.854 132.063C290.122 130.32 299.949 128.166 306.533 124.608C306.799 98.079 299.683 87.7192 299.683 87.7192C297.875 88.1711 296.1 88.7439 294.358 89.4378L293.22 89.9219C290.041 91.4065 286.951 93.0605 283.949 94.8839C283.368 95.247 282.763 95.6101 282.207 95.949C279.302 97.8369 276.809 99.7976 276.809 99.7976Z" fill="white"/>
<path d="M294.261 99.3138L294.648 96.8449L292.954 96.748L291.937 97.8857L294.261 99.3138Z" fill="#6202C0"/>
<path d="M292.954 96.7475C289.831 98.4903 286.733 96.457 284.724 95.0531L284.53 94.9079C285.402 93.6734 285.499 91.7128 285.208 89.728C284.869 87.5496 284.264 85.3953 283.465 83.3379L290.63 87.4527C290.63 87.9368 290.533 88.3725 290.509 88.7598C290.412 89.6796 290.412 90.3089 290.92 90.7204C291.719 91.1561 292.615 91.374 293.535 91.3014C294.358 92.2454 295.108 95.5372 292.954 96.7475Z" fill="#FEDCBD"/>
<path d="M282.255 95.9734C282.255 95.9734 291.259 105.389 297.867 110.521C297.867 110.521 297.383 93.8675 294.406 89.4622L300.53 86.8965C300.53 86.8965 306.436 99.9188 307.283 121.703L309.946 127.174L302.49 134.75L300.094 129.134L298.472 138.477L283.102 139.833L284.99 129.183L275.913 100.427L282.255 95.9734Z" fill="#263238"/>
<path d="M293.438 98.8053C293.438 98.8053 295.568 106.067 295.423 109.94L298.182 111.368L298.666 109.238C298.666 109.238 296.246 99.8703 294.019 98.2485L293.438 98.8053Z" fill="#6202C0"/>
<path d="M282.57 95.199C282.57 95.199 293.849 107.568 297.819 110.521C297.819 110.521 296.657 93.7709 294.067 89.5592C294.067 89.5592 295.858 88.3489 299.634 92.0523L297.746 95.562L301.111 97.8857C301.111 97.8857 299.973 110.424 297.746 116.378C297.908 115.12 297.98 113.853 297.964 112.578L284.748 105.268L285.329 101.202L280.343 101.008C280.343 101.008 280.875 96.2156 282.57 95.199Z" fill="#263238"/>
<path opacity="0.2" d="M282.57 95.199C282.57 95.199 293.849 107.568 297.819 110.521C297.819 110.521 296.657 93.7709 294.067 89.5592C294.067 89.5592 295.858 88.3489 299.634 92.0523L297.746 95.562L301.111 97.8857C301.111 97.8857 299.973 110.424 297.746 116.378C297.908 115.12 297.98 113.853 297.964 112.578L284.748 105.268L285.329 101.202L280.343 101.008C280.343 101.008 280.875 96.2156 282.57 95.199Z" fill="white"/>
<path d="M328.462 37.0824C328.462 37.0824 322.072 36.3805 318.49 38.0506C314.932 39.745 311.325 45.2153 305.54 45.7478C299.755 46.2562 298.593 44.3682 298.593 44.3682C298.593 44.3682 303.701 53.4208 313.504 53.3482C323.307 53.2514 328.414 51.6297 334.199 55.2604C334.223 55.2604 329.77 39.9144 328.462 37.0824Z" fill="#6202C0"/>
<path opacity="0.2" d="M290.921 90.6966C290.315 92.5604 288.839 95.1746 285.329 95.1019C285.136 95.1181 284.934 95.1181 284.724 95.1019L284.53 94.9567C285.402 93.7465 285.499 91.7617 285.208 89.7768C286.781 88.7602 288.694 88.3972 290.533 88.7844C290.412 89.6558 290.412 90.2852 290.921 90.6966Z" fill="black"/>
<path d="M292.954 96.748C293.026 98.0308 292.736 99.3137 292.155 100.451C290.194 100.185 284.312 97.2563 283.998 94.8116C284.167 94.2306 284.482 93.6981 284.918 93.2866C287.169 95.2714 289.976 96.4817 292.954 96.748Z" fill="white"/>
<path d="M292.954 96.7477C294.067 97.0139 295.084 97.5465 295.955 98.2726C296.512 95.9731 294.212 90.4544 293.631 90.1639C292.687 90.0671 291.719 90.2365 290.848 90.6238C290.848 90.6238 294.067 93.6494 292.954 96.7477Z" fill="white"/>
<path d="M277.196 81.0385C277.075 82.8538 278.261 86.2667 280.294 84.5724C282.352 82.8538 277.39 77.916 277.196 81.0385Z" fill="#263238"/>
<path d="M289.928 80.3363C291.259 84.5964 292.252 87.0653 290.945 89.9941C288.96 94.4237 283.03 94.3995 280.44 90.5751C278.14 87.1622 276.349 80.7236 279.859 77.5285C282.376 75.2291 286.297 75.4227 288.597 77.9642C289.226 78.642 289.686 79.4649 289.928 80.3363Z" fill="#FEDCBD"/>
<path d="M290.63 74.9148C290.194 72.1312 286.878 72.5185 284.942 73.995V79.5138C285.7 79.1588 286.41 78.7311 287.072 78.2309C287.072 78.2309 287.822 82.37 290.364 83.556C293.583 80.4336 293.849 75.6168 290.63 74.9148Z" fill="#263238"/>
<path d="M292.905 83.2414C292.954 84.3548 292.591 85.4441 291.84 86.2913C290.824 87.3563 289.517 86.6543 289.154 85.2988C288.79 83.9192 288.936 82.007 290.219 81.426C291.211 81.0145 292.349 81.4987 292.76 82.4669C292.857 82.7089 292.905 82.9752 292.905 83.2414Z" fill="#FEDCBD"/>
<path d="M283.998 83.8706C284.119 84.2095 283.998 84.5484 283.804 84.621C283.635 84.7178 283.296 84.5 283.175 84.1611C283.054 83.8222 283.175 83.4833 283.368 83.3865C283.538 83.3139 283.853 83.5318 283.998 83.8706Z" fill="#263238"/>
<path d="M280.125 85.2745C280.27 85.6134 280.173 85.9523 279.956 86.0491C279.738 86.1217 279.447 85.928 279.302 85.565C279.181 85.2261 279.254 84.8872 279.472 84.8146C279.714 84.7178 279.98 84.9356 280.125 85.2745Z" fill="#263238"/>
<path d="M281.408 85.0083C281.359 86.1701 281.166 87.3078 280.803 88.4212C281.408 88.5664 282.037 88.4454 282.546 88.1065L281.408 85.0083Z" fill="#F9B378"/>
<path d="M284.869 88.736L284.433 88.9296C284.385 88.9538 284.312 88.9296 284.288 88.857C284.264 88.8086 284.312 88.7602 284.361 88.736C285.232 88.4213 285.91 87.7436 286.176 86.8722C286.2 86.7996 286.249 86.7754 286.297 86.7754C286.37 86.7996 286.394 86.848 286.394 86.8964C286.152 87.6952 285.595 88.3729 284.869 88.736Z" fill="#263238"/>
<path d="M284.724 82.1761C284.651 82.2245 284.579 82.2245 284.506 82.1761C284.046 81.8615 283.465 81.7889 282.957 81.9825C282.836 82.0309 282.715 81.9825 282.667 81.8857C282.618 81.7646 282.667 81.6436 282.788 81.5952C283.441 81.3532 284.167 81.4258 284.724 81.8131C284.821 81.8857 284.845 82.0067 284.797 82.1035C284.78 82.1358 284.756 82.16 284.724 82.1761Z" fill="#263238"/>
<path d="M277.995 84.5723C277.947 84.5884 277.906 84.5884 277.874 84.5723C277.753 84.5481 277.656 84.4513 277.68 84.3302C277.729 83.6283 278.14 83.0232 278.745 82.6601C278.842 82.6117 278.963 82.6601 279.012 82.7569C279.084 82.8779 279.036 82.999 278.939 83.0474C278.479 83.3378 278.164 83.8219 278.14 84.3787C278.14 84.4513 278.068 84.5481 277.995 84.5723Z" fill="#263238"/>
<path d="M286.975 78.2795C286.975 78.2795 284.288 81.0389 281.65 80.9178C282.352 80.579 283.005 80.1433 283.562 79.5866C283.562 79.5866 278.407 81.8134 275.889 80.6516C273.348 79.4897 273.638 78.2311 273.638 78.2311C273.638 78.2311 273.929 78.9814 276.373 78.9088C276.373 78.9088 274.243 77.5049 275.115 75.5443C275.357 76.0042 275.841 76.3189 276.373 76.3673C278.068 73.7774 280.9 72.1072 283.998 71.8894C289.517 71.26 290.63 73.4385 290.872 75.0844C291.114 76.7062 286.975 78.2795 286.975 78.2795Z" fill="#263238"/>
<path d="M123.059 365.86H198.481C199.208 365.86 199.813 366.441 199.813 367.191V384.377C199.813 385.127 199.208 385.732 198.481 385.732H123.059C122.332 385.732 121.727 385.127 121.727 384.377V367.191C121.727 366.441 122.332 365.86 123.059 365.86Z" fill="#6202C0"/>
<path opacity="0.2" d="M125.213 366.997H128.311V384.764H125.213V366.997Z" fill="black"/>
<path opacity="0.2" d="M133.079 366.925H135.331V384.667H133.079V366.925Z" fill="black"/>
<path opacity="0.2" d="M140.656 366.997H141.769V384.764H140.656V366.997Z" fill="black"/>
<path opacity="0.2" d="M149.926 366.925H150.483V384.667H149.926V366.925Z" fill="black"/>
<path opacity="0.2" d="M196.327 384.667H193.229V366.925H196.327V384.667Z" fill="black"/>
<path opacity="0.2" d="M188.461 384.764H186.21V366.997H188.461V384.764Z" fill="black"/>
<path opacity="0.2" d="M180.86 384.667H179.747V366.925H180.86V384.667Z" fill="black"/>
<path opacity="0.2" d="M171.59 384.764H171.033V366.997H171.59V384.764Z" fill="black"/>
<path opacity="0.2" d="M160.915 384.764H160.625V366.997H160.915V384.764Z" fill="black"/>
<path opacity="0.2" d="M197.731 368.885H123.978C123.47 368.885 123.034 368.474 123.034 367.965C123.034 367.949 123.034 367.941 123.034 367.941C123.034 367.409 123.446 366.997 123.978 366.997H197.731C198.239 366.997 198.675 367.409 198.675 367.941C198.675 368.449 198.264 368.861 197.755 368.885C197.739 368.885 197.731 368.885 197.731 368.885Z" fill="white"/>
<path d="M124.124 346.036H199.547C200.273 346.036 200.878 346.641 200.878 347.367V364.553C200.878 365.303 200.273 365.908 199.547 365.908H124.124C123.397 365.908 122.792 365.303 122.792 364.553V347.367C122.792 346.641 123.397 346.036 124.124 346.036Z" fill="#6202C0"/>
<path opacity="0.2" d="M126.278 347.173H129.376V364.94H126.278V347.173Z" fill="black"/>
<path opacity="0.2" d="M134.144 347.101H136.396V364.843H134.144V347.101Z" fill="black"/>
<path opacity="0.2" d="M141.721 347.173H142.834V364.94H141.721V347.173Z" fill="black"/>
<path opacity="0.2" d="M150.991 347.101H151.572V364.843H150.991V347.101Z" fill="black"/>
<path opacity="0.2" d="M197.392 364.843H194.294V347.076H197.392V364.843Z" fill="black"/>
<path opacity="0.2" d="M189.526 364.916H187.275V347.173H189.526V364.916Z" fill="black"/>
<path opacity="0.2" d="M181.925 364.843H180.812V347.076H181.925V364.843Z" fill="black"/>
<path opacity="0.2" d="M172.655 364.916H172.098V347.173H172.655V364.916Z" fill="black"/>
<path opacity="0.2" d="M161.98 364.916H161.69V347.173H161.98V364.916Z" fill="black"/>
<path opacity="0.2" d="M198.796 349.061H125.043C124.511 349.061 124.099 348.626 124.099 348.117C124.099 347.609 124.511 347.173 125.019 347.173C125.019 347.173 125.027 347.173 125.043 347.173H198.796C199.304 347.173 199.716 347.585 199.74 348.093C199.74 348.109 199.74 348.117 199.74 348.117C199.74 348.626 199.304 349.061 198.796 349.061Z" fill="white"/>
<path d="M119.863 326.212H195.286C196.013 326.212 196.618 326.817 196.618 327.543V344.729C196.618 345.479 196.013 346.084 195.286 346.084H119.863C119.137 346.084 118.532 345.479 118.532 344.729V327.543C118.532 326.817 119.137 326.212 119.863 326.212Z" fill="#6202C0"/>
<path opacity="0.2" d="M122.018 327.349H125.092V345.091H122.018V327.349Z" fill="black"/>
<path opacity="0.2" d="M129.884 327.252H132.135V345.019H129.884V327.252Z" fill="black"/>
<path opacity="0.2" d="M137.461 327.349H138.574V345.091H137.461V327.349Z" fill="black"/>
<path opacity="0.2" d="M146.731 327.252H147.288V345.019H146.731V327.252Z" fill="black"/>
<path opacity="0.2" d="M193.108 345.019H190.034V327.252H193.108V345.019Z" fill="black"/>
<path opacity="0.2" d="M185.266 345.091H183.014V327.349H185.266V345.091Z" fill="black"/>
<path opacity="0.2" d="M177.665 345.019H176.552V327.252H177.665V345.019Z" fill="black"/>
<path opacity="0.2" d="M168.395 345.091H167.838V327.349H168.395V345.091Z" fill="black"/>
<path opacity="0.2" d="M157.72 345.091H157.43V327.349H157.72V345.091Z" fill="black"/>
<path opacity="0.2" d="M194.536 329.213H120.783C120.275 329.237 119.839 328.826 119.839 328.317C119.839 328.301 119.839 328.293 119.839 328.293C119.839 327.761 120.251 327.349 120.783 327.349H194.536C195.044 327.349 195.456 327.761 195.48 328.293C195.48 328.801 195.044 329.213 194.536 329.213Z" fill="white"/>
<path d="M152.807 313.069L150.652 318.345L149.031 322.315L144.964 320.863L146.441 317.304L148.74 311.616L152.807 313.069Z" fill="#FEDCBD"/>
<path d="M239.751 284.845L236.29 287.411L235.031 284.603L232.078 278.092L235.539 275.526L238.323 281.674L239.751 284.845Z" fill="#FEDCBD"/>
<path opacity="0.2" d="M148.74 311.616L152.807 313.069L150.652 318.345L146.441 317.304L148.74 311.616Z" fill="black"/>
<path opacity="0.2" d="M238.323 281.674L235.031 284.603L232.078 278.092L235.539 275.526L238.323 281.674Z" fill="black"/>
<path d="M183.329 167.088C183.45 167.426 183.716 167.62 183.934 167.547C184.152 167.475 184.225 167.16 184.104 166.821C184.007 166.482 183.741 166.289 183.523 166.361C183.305 166.434 183.208 166.773 183.329 167.088Z" fill="#263238"/>
<path d="M183.692 167.645C184.443 168.492 185.29 169.266 186.234 169.896C185.919 170.38 185.387 170.694 184.781 170.743L183.692 167.645Z" fill="#F9B378"/>
<path d="M181.49 165.708C181.441 165.724 181.393 165.724 181.344 165.708C181.272 165.636 181.272 165.49 181.344 165.418C181.707 164.885 182.313 164.546 182.966 164.498C183.087 164.522 183.16 164.619 183.16 164.716C183.16 164.837 183.087 164.934 182.966 164.934C182.966 164.934 182.958 164.934 182.942 164.934C182.434 164.958 181.949 165.224 181.683 165.66C181.635 165.708 181.562 165.708 181.49 165.708Z" fill="#263238"/>
<path d="M175.462 172.461C175.511 175.656 175.099 181.466 172.558 183.16C172.558 183.16 172.848 186.476 178.609 187.493C184.999 188.63 182.216 184.879 182.216 184.879C178.9 183.451 179.456 180.885 180.473 178.585L175.462 172.461Z" fill="#FEDCBD"/>
<path d="M172.146 170.259C173.817 174.204 174.591 176.649 177.35 177.956C181.514 179.965 185.871 176.382 185.387 172.026C184.975 168.08 182.313 162.295 177.81 162.101C174.591 161.932 171.832 164.401 171.662 167.62C171.614 168.516 171.783 169.436 172.146 170.259Z" fill="#FEDCBD"/>
<path d="M174.954 176.673C176.842 177.423 182.724 173.212 180.715 168.346C180.715 168.346 182.724 165.103 181.998 161.956C181.272 158.81 178.924 157.866 176.673 158.906C174.688 159.802 174.906 160.915 174.906 160.915C174.906 160.915 165.321 163.433 167.959 167.088C164.57 171.953 172.606 175.753 174.954 176.673Z" fill="#263238"/>
<path d="M179.142 169.46C179.553 170.428 180.303 171.251 181.223 171.784C182.458 172.437 183.16 171.517 182.918 170.259C182.651 169.024 181.78 167.427 180.497 167.281C179.214 167.112 178.658 168.298 179.142 169.46Z" fill="#FEDCBD"/>
<path d="M171.033 183.208C170.573 182.313 170.089 181.272 171.178 181.006C172.267 180.739 179.965 180.279 182.167 181.006C181.441 182.216 182.579 183.741 182.579 183.741L171.033 183.208Z" fill="#6202C0"/>
<path opacity="0.5" d="M171.033 183.208C170.573 182.313 170.089 181.272 171.178 181.006C172.267 180.739 179.965 180.279 182.167 181.006C181.441 182.216 182.579 183.741 182.579 183.741L171.033 183.208Z" fill="#FAFAFA"/>
<path d="M149.321 320.596H144.601C144.432 320.596 144.286 320.717 144.238 320.886L143.391 324.735C143.318 325.049 143.512 325.388 143.851 325.485C143.899 325.485 143.956 325.485 144.02 325.485C145.714 325.485 148.159 325.364 150.289 325.364C152.807 325.364 154.961 325.509 157.89 325.509C159.657 325.509 160.141 323.718 159.415 323.549C156.026 322.798 153.291 322.726 150.362 320.935C150.047 320.717 149.684 320.62 149.321 320.596Z" fill="#263238"/>
<path d="M179.771 221.282C179.771 221.282 178.44 230.311 176.818 240.719C176.092 245.173 175.317 249.869 174.567 254.201C173.72 259.067 172.921 263.496 172.219 266.594C169.266 280.125 153.484 317.401 153.484 317.401L145.763 315.731C145.763 315.731 156.8 286.733 159.245 267.805C161.157 253.282 164.909 221.258 164.909 221.258L179.771 221.282Z" fill="#263238"/>
<path d="M155.324 314.811L153.896 317.594L145.206 315.706L145.932 313.141L155.324 314.811Z" fill="#6202C0"/>
<path opacity="0.3" d="M155.324 314.811L153.896 317.594L145.206 315.706L145.932 313.141L155.324 314.811Z" fill="black"/>
<path opacity="0.2" d="M176.818 240.719C176.092 245.173 175.317 249.869 174.567 254.201C172.437 245.609 173.139 240.477 173.139 240.477L176.818 240.719Z" fill="black"/>
<path d="M167.16 191.099C165.078 193.059 162.9 195.117 160.915 197.199C158.914 199.232 157.018 201.362 155.227 203.589C154.469 204.702 153.783 205.856 153.17 207.05C152.516 208.333 151.838 209.64 151.209 210.995L147.288 219.056L144.238 217.991C144.891 215.013 145.739 212.085 146.634 209.156C147.118 207.704 147.627 206.227 148.208 204.775C148.789 203.201 149.515 201.701 150.386 200.248C152.105 197.61 154.065 195.117 156.195 192.793C158.277 190.47 160.48 188.267 162.803 186.209L167.16 191.099Z" fill="#FEDCBD"/>
<path d="M143.972 225.882L145.545 223.098L140.777 221.646C140.22 222.953 140.244 224.43 140.849 225.688L143.972 225.882Z" fill="#FEDCBD"/>
<path d="M147.288 219.008L144.238 218.04L140.777 221.646L145.545 223.098L147.288 219.008Z" fill="#FEDCBD"/>
<path d="M239.703 284.265L235.806 287.145C235.685 287.242 235.636 287.435 235.685 287.605L237.282 291.187C237.427 291.502 237.79 291.647 238.105 291.502C238.154 291.486 238.202 291.462 238.25 291.429C239.606 290.364 240.211 289.832 241.905 288.549C242.97 287.774 245.391 286.056 246.867 284.991C248.32 283.926 247.424 282.328 246.746 282.643C243.648 284.047 241.857 284.192 240.429 284.047C240.163 284.023 239.921 284.095 239.703 284.265Z" fill="#263238"/>
<path d="M165.296 183.595C161.157 183.353 155.058 192.309 155.058 192.309L161.085 200.539C163.723 198.99 165.926 196.787 167.475 194.149C170.331 189.308 169.532 183.861 165.296 183.595Z" fill="#6202C0"/>
<path opacity="0.6" d="M165.296 183.595C161.157 183.353 155.058 192.309 155.058 192.309L161.085 200.539C163.723 198.99 165.926 196.787 167.475 194.149C170.331 189.308 169.532 183.861 165.296 183.595Z" fill="#FAFAFA"/>
<path opacity="0.2" d="M166.482 191.874C163.771 193.326 161.956 196.909 160.818 200.176L161.085 200.539C163.723 198.99 165.926 196.788 167.475 194.149C167.644 193.883 167.789 193.568 167.959 193.278L166.482 191.874Z" fill="black"/>
<path d="M189.816 182.942C189.816 182.942 192.309 189.187 187.952 221.283H164.909C164.74 217.749 166.967 200.466 163.554 183.789C166.095 183.281 168.685 182.966 171.275 182.797C174.228 182.676 184.055 180.667 186.645 180.933C190.058 181.223 189.816 182.942 189.816 182.942Z" fill="#6202C0"/>
<path opacity="0.6" d="M190.373 197.102C190.082 202.766 189.405 210.584 187.952 221.283H164.909C164.74 217.725 166.967 200.466 163.554 183.765C166.095 183.281 168.685 182.942 171.275 182.797C174.228 182.651 184.055 180.667 186.645 180.909C190.058 181.223 189.84 182.942 189.84 182.942C189.84 182.942 190.373 184.249 190.494 188.751C190.566 190.808 190.542 193.519 190.373 197.102Z" fill="#FAFAFA"/>
<path d="M187.032 219.419L191.583 230.069C191.583 230.069 213.658 232.829 219.927 240.429C226.196 248.029 238.033 278.842 238.033 278.842L232.126 283.853C232.126 283.853 215.183 252.701 210.463 248.949C205.719 245.197 178.73 245.197 172.703 242.946C166.676 240.695 164.933 221.234 164.933 221.234L187.032 219.419Z" fill="#263238"/>
<path d="M230.868 283.272L237.984 277.801L238.904 279.568L232.078 284.942L230.868 283.272Z" fill="#6202C0"/>
<path opacity="0.3" d="M230.868 283.272L237.984 277.801L238.904 279.568L232.078 284.942L230.868 283.272Z" fill="black"/>
<path d="M182.143 163.506C182.143 163.506 181.877 157.164 178.512 156.946C175.172 156.752 172.558 159.778 172.558 159.778C171.88 158.955 170.912 158.471 169.847 158.471C167.959 158.374 164.667 161.593 164.667 161.593C164.667 161.593 168.782 159.052 170.525 160.214C170.525 160.214 165.829 161.521 164.667 164.474C164.159 165.974 163.312 167.354 162.198 168.492H164.667L163.045 171.227C163.045 171.227 166.434 174.495 169 173.962L168.177 175.511C168.177 175.511 173.187 177.351 175.22 176.77C177.278 176.213 175.342 166.023 175.342 166.023L182.143 163.506Z" fill="#263238"/>
<path opacity="0.2" d="M190.373 197.102C186.185 194.246 186.234 187.71 186.234 187.71L190.494 188.775C190.566 190.809 190.542 193.52 190.373 197.102Z" fill="black"/>
<path d="M151.766 229.44L123.301 224.647L115.942 246.553L120.662 255.097L151.717 259.188L158.011 235.346L151.766 229.44Z" fill="#6202C0"/>
<path opacity="0.4" d="M115.942 246.553L117.782 249.893L118.193 250.619L120.662 255.097L151.717 259.188L158.011 235.346L155.348 232.828L154.525 232.054L151.766 229.44L123.301 224.647L115.942 246.553Z" fill="black"/>
<path opacity="0.2" d="M158.011 235.346L129.86 230.964L123.301 224.647L151.766 229.44L158.011 235.346Z" fill="white"/>
<path opacity="0.1" d="M129.86 230.964L120.662 255.097L115.942 246.553L123.301 224.647L129.86 230.964Z" fill="white"/>
<path d="M117.782 249.893L118.193 250.619L126.714 228.012L155.348 232.829L154.525 232.054L126.205 227.503L117.782 249.893Z" fill="#263238"/>
<path d="M145.739 230.723L144.286 229.391L137.122 228.108L138.38 229.561L145.739 230.723Z" fill="#263238"/>
<path d="M148.498 231.255C148.498 231.255 148.837 223.752 148.619 223.244C148.425 222.735 138.332 221.113 137.582 220.968C136.831 220.799 133.491 228.133 133.491 228.133L134.072 229.004L135.984 229.271C135.984 229.271 138.405 222.953 138.647 222.784C141.406 223.074 144.149 223.526 146.876 224.139C147.094 224.309 146.247 230.045 146.247 230.045L146.901 230.989L148.498 231.255Z" fill="#263238"/>
<path d="M117.879 243.213L120.009 245.948L120.202 245.415L121.824 241.155L122.018 240.647L122.357 239.727C122.357 239.727 121.751 240.405 120.904 241.179C120.057 242.051 119.016 242.753 117.879 243.213Z" fill="#6202C0"/>
<path opacity="0.2" d="M118.581 243.43L120.154 245.415L121.776 241.155L121.945 240.646C121.074 241.833 119.912 242.777 118.581 243.43Z" fill="white"/>
<path opacity="0.2" d="M120.856 241.179H121.776L122.308 239.751C122.308 239.751 121.679 240.405 120.856 241.179Z" fill="black"/>
<path d="M117.104 237.863L116.717 241.712C118.29 240.986 120.081 240.743 121.8 241.034L121.994 240.501L123.228 237.185L123.373 236.846C121.219 236.629 119.065 236.992 117.104 237.863Z" fill="#6202C0"/>
<path d="M121.146 231.328C121.897 232.78 122.865 234.087 124.051 235.225L124.196 234.813L124.583 233.748L125.213 231.981L125.527 231.134L125.6 230.892C125.1 230.118 124.664 229.295 124.293 228.423L121.146 231.328Z" fill="#6202C0"/>
<path d="M127.658 226.365C128.045 226.971 128.359 227.624 128.553 228.326L129.013 228.399L129.618 228.496L130.611 228.665L131.555 228.834L131.893 228.883C131.869 227.406 131.337 225.978 130.344 224.865L127.658 226.365Z" fill="#6202C0"/>
<path opacity="0.2" d="M128.263 226.463C128.585 227.076 128.835 227.721 129.013 228.399L129.618 228.496C129.521 228.327 129.497 228.109 129.545 227.939C129.667 227.576 130.054 227.383 130.393 227.504C130.756 227.625 130.949 227.988 130.828 228.327C130.828 228.343 130.828 228.351 130.828 228.351C130.78 228.472 130.707 228.593 130.61 228.665L131.554 228.835C131.506 227.576 131.07 226.366 130.32 225.374L128.263 226.463Z" fill="white"/>
<path opacity="0.2" fill-rule="evenodd" clip-rule="evenodd" d="M123.228 237.186L121.994 240.502C120.348 240.381 118.677 240.599 117.104 241.131L117.346 238.009C119.21 237.234 121.243 236.944 123.228 237.186ZM120.323 237.791C119.864 237.936 119.621 238.444 119.767 238.904C119.936 239.364 120.444 239.606 120.904 239.461C121.05 239.485 121.219 239.485 121.364 239.413C121.824 239.267 122.066 238.759 121.897 238.299C121.752 237.839 121.243 237.597 120.783 237.742C120.614 237.718 120.469 237.742 120.323 237.791Z" fill="white"/>
<path opacity="0.2" d="M121.679 231.497C122.381 232.683 123.228 233.797 124.196 234.813L124.583 233.748C124.124 233.555 123.906 233.047 124.075 232.587C124.196 232.151 124.656 231.86 125.14 231.981L125.431 231.11C124.898 230.529 124.462 229.827 124.148 229.101L121.679 231.497Z" fill="white"/>
<path d="M216.998 162.804L218.644 160.068L222.251 163.505C221.404 164.619 220.097 165.321 218.693 165.442L216.998 162.804Z" fill="#FEDCBD"/>
<path d="M221.162 156.413L223.727 160.02L222.251 163.505L218.644 160.068L221.162 156.413Z" fill="#FEDCBD"/>
<path d="M188.654 181.466C191.607 180.852 194.52 180.094 197.392 179.19C200.152 178.367 202.814 177.205 205.283 175.753C205.509 175.608 205.727 175.447 205.937 175.269L206.663 174.591C207.195 174.107 207.728 173.526 208.212 173.018C209.228 171.88 210.269 170.718 211.286 169.532C213.319 167.16 215.328 164.716 217.41 162.319L220.097 164.111C218.62 166.991 216.974 169.726 215.231 172.485C214.36 173.817 213.44 175.196 212.448 176.528C211.939 177.181 211.383 177.859 210.85 178.537C210.56 178.851 210.221 179.19 209.906 179.529C209.535 179.916 209.132 180.271 208.696 180.594C205.888 182.627 202.766 184.225 199.474 185.363C196.327 186.5 193.084 187.347 189.792 187.928L188.654 181.466Z" fill="#FEDCBD"/>
<path d="M187.275 190.76C191.752 194.657 201.604 187.976 201.604 187.976L197.683 178.27C194.076 178.706 190.494 179.456 187.032 180.569C180.812 182.7 183.837 187.807 187.275 190.76Z" fill="#6202C0"/>
<path opacity="0.6" d="M187.275 190.76C191.752 194.657 201.604 187.976 201.604 187.976L197.683 178.27C194.076 178.706 190.494 179.456 187.032 180.569C180.812 182.7 183.837 187.807 187.275 190.76Z" fill="#FAFAFA"/>
</svg>
