<svg width="558" height="526" viewBox="0 0 558 526" fill="none" xmlns="http://www.w3.org/2000/svg">
<path d="M31.4213 504.647C31.4213 504.647 -63.9973 344.042 77.7248 261.789C131.436 230.609 169.358 213.173 259.911 182.78C411.618 131.839 477.513 276.957 478.523 332.192C479.857 405.408 499.286 396.408 514.228 426.632C522.627 443.619 521.906 483.667 511.759 502.81L31.4213 504.647Z" fill="#C5ACFF"/>
<path d="M512.823 508.895C512.823 508.895 512.928 521.545 411.612 523.675C337.982 525.231 316.253 526.249 260.864 525.638C205.475 525.046 20.5751 527.12 29.8621 507.062C29.8621 507.062 26.1298 492.078 85.5843 488.837C135.472 486.114 204.283 488.096 234.492 486.337C263.247 484.67 383.4 485.837 417.132 487.578C454.718 489.522 515.75 493.263 512.823 508.895Z" fill="#7C4FD3"/>
<path d="M430.652 336.454H82.6615C74.2828 336.454 67.504 329.675 67.504 321.296V59.7451H430.652C439.031 59.7451 445.81 66.5239 445.81 74.8605V321.296C445.81 329.675 439.031 336.454 430.652 336.454Z" fill="#E4E4EA"/>
<path d="M195.669 88.7978V173.301C195.669 177.132 192.553 180.206 188.764 180.206H104.219C102.703 180.206 101.314 179.743 100.177 178.901C98.4505 177.68 97.3137 175.617 97.3137 173.301V88.7978C97.3137 84.9663 100.387 81.8506 104.219 81.8506H188.764C192.553 81.8506 195.669 84.9663 195.669 88.7978Z" fill="#EFEFF4"/>
<path d="M410.19 110.818H211.248C209.648 110.818 208.3 109.513 208.3 107.871V94.7764C208.3 93.1343 209.648 91.8291 211.248 91.8291H410.19C411.79 91.8291 413.137 93.1343 413.137 94.7764V107.871C413.137 109.513 411.79 110.818 410.19 110.818Z" fill="#D2D2DB"/>
<path d="M410.19 139.07H211.248C209.648 139.07 208.3 137.764 208.3 136.122V123.028C208.3 121.386 209.648 120.081 211.248 120.081H410.19C411.79 120.081 413.137 121.386 413.137 123.028V136.122C413.137 137.764 411.79 139.07 410.19 139.07Z" fill="#D2D2DB"/>
<path d="M410.19 167.321H211.248C209.648 167.321 208.3 166.016 208.3 164.374V151.28C208.3 149.638 209.648 148.333 211.248 148.333H410.19C411.79 148.333 413.137 149.638 413.137 151.28V164.374C413.137 166.016 411.79 167.321 410.19 167.321Z" fill="#D2D2DB"/>
<path d="M256.678 196.331H100.177V194.773H256.678V196.331Z" fill="#ADA4F7"/>
<path d="M269.646 214.015H100.177V212.457H269.646V214.015Z" fill="#ADA4F7"/>
<path d="M214.195 231.278H100.177V229.72H214.195V231.278Z" fill="#ADA4F7"/>
<path d="M155.418 277.256C155.418 291.866 143.586 303.655 129.018 303.655C114.45 303.655 102.619 291.866 102.619 277.256C102.619 262.688 114.45 250.856 129.018 250.856C143.586 250.856 155.418 262.688 155.418 277.256Z" fill="white"/>
<path d="M151.797 277.256C151.797 291.866 140.007 303.655 125.439 303.655C110.829 303.655 99.04 291.866 99.04 277.256C99.04 262.688 110.829 250.856 125.439 250.856C140.007 250.856 151.797 262.688 151.797 277.256Z" fill="#80BAFF"/>
<path d="M123.208 291.361L110.113 276.582L114.787 272.414L123.124 281.887L137.439 265.172L142.155 269.256L123.208 291.361Z" fill="white"/>
<path d="M153.86 99.7863C153.86 99.7863 143.881 94.8601 134.576 100.292C125.313 105.723 128.218 119.154 128.218 119.154C128.218 119.154 115.587 130.607 113.819 142.606C112.05 154.648 118.197 158.058 118.197 158.058L138.955 149.553L148.344 111.997L153.86 99.7863Z" fill="black"/>
<path d="M172.849 155.364C172.849 155.364 178.28 137.764 174.28 132.038C170.028 126.017 162.786 125.386 162.996 120.544C163.459 109.302 155.502 103.786 155.502 103.786L153.565 148.122L172.849 155.364Z" fill="black"/>
<path d="M182.491 180.206H109.145C108.514 166.859 111.419 153.722 125.987 143.196C128.513 141.343 137.313 137.133 145.607 138.228C164.512 140.754 179.838 151.238 181.564 170.227L182.491 180.206Z" fill="#EA366E"/>
<path d="M137.186 102.734C137.186 102.734 125.65 83.9977 118.871 95.45C112.134 106.944 128.808 124.123 135.586 118.565C142.323 112.965 137.186 102.734 137.186 102.734Z" fill="black"/>
<path d="M141.06 129.175L140.934 142.607C140.934 142.607 143.039 144.333 149.902 144.964C154.997 145.427 156.807 144.08 156.807 144.08L155.502 132.544L143.165 129.681L141.06 129.175Z" fill="#FC8165"/>
<path d="M143.165 129.681C143.193 129.989 143.291 130.368 143.46 130.817C146.028 136.712 153.228 138.017 156.175 138.312L155.502 132.544L143.165 129.681Z" fill="black"/>
<path d="M158.407 105.808C158.407 105.808 164.428 120.586 161.901 128.712C159.375 136.881 151.965 135.407 147.502 133.681C143.081 131.997 141.06 129.176 141.06 129.176C141.06 129.176 136.85 130.481 134.155 126.523C131.46 122.565 133.313 118.144 135.713 117.176C138.113 116.25 140.934 118.018 140.934 118.018L138.828 113.723C138.828 113.723 148.723 92.3766 158.407 105.808Z" fill="#FC8165"/>
<path d="M140.934 118.018C140.934 118.018 147.165 119.533 151.754 112.67C156.386 105.849 156.091 102.944 156.091 102.944L160.175 110.355C160.175 110.355 161.312 105.386 159.459 102.102C157.565 98.8602 155.46 99.4496 155.46 99.4496L141.481 102.397L137.439 113.386L140.934 118.018Z" fill="black"/>
<path d="M157.27 124.418C157.214 124.418 157.158 124.404 157.102 124.376C156.849 124.292 156.681 123.997 156.765 123.702C157.691 121.092 155.797 118.144 155.754 118.102C155.628 117.85 155.67 117.555 155.923 117.386C156.175 117.218 156.47 117.302 156.639 117.513C156.723 117.681 158.828 120.923 157.775 124.039C157.691 124.292 157.481 124.418 157.27 124.418Z" fill="black"/>
<path d="M151.123 114.102C151.067 114.102 151.01 114.088 150.954 114.06C150.66 113.975 150.533 113.681 150.66 113.386C151.923 110.228 153.944 110.86 154.028 110.86C154.323 110.944 154.449 111.239 154.365 111.533C154.281 111.786 154.028 111.954 153.733 111.87C153.649 111.828 152.512 111.575 151.628 113.765C151.544 113.975 151.333 114.102 151.123 114.102Z" fill="black"/>
<path d="M160.428 112.207C160.175 112.207 159.965 112.039 159.923 111.786C159.881 111.618 159.712 111.113 159.375 110.944C159.038 110.818 158.617 110.986 158.323 111.197C158.07 111.323 157.733 111.239 157.607 110.986C157.438 110.776 157.523 110.439 157.775 110.271C158.533 109.821 159.207 109.737 159.796 110.018C160.681 110.397 160.933 111.449 160.933 111.576C161.017 111.87 160.807 112.123 160.554 112.165C160.498 112.193 160.456 112.207 160.428 112.207Z" fill="black"/>
<path d="M140.092 124.923C139.965 124.923 139.797 124.838 139.713 124.754L135.881 120.417C135.671 120.207 135.713 119.87 135.923 119.66C136.134 119.491 136.471 119.491 136.639 119.702L140.471 124.038C140.681 124.249 140.639 124.586 140.428 124.796C140.344 124.88 140.232 124.923 140.092 124.923Z" fill="black"/>
<path d="M135.923 123.659C135.671 123.659 135.46 123.449 135.418 123.196C135.376 122.902 135.586 122.649 135.881 122.607L138.618 122.27C138.913 122.27 139.165 122.481 139.207 122.733C139.25 123.028 139.039 123.281 138.744 123.323L136.008 123.659C135.979 123.659 135.951 123.659 135.923 123.659Z" fill="black"/>
<path d="M160.049 118.775C159.796 118.775 159.544 118.564 159.502 118.312L159.207 115.617C159.207 115.491 159.249 115.322 159.333 115.238L160.428 113.975C160.596 113.765 160.933 113.765 161.144 113.933C161.354 114.144 161.396 114.48 161.186 114.691L160.302 115.743L160.554 118.186C160.596 118.48 160.386 118.733 160.091 118.775C160.063 118.775 160.049 118.775 160.049 118.775Z" fill="black"/>
<path d="M152.049 119.112C151.796 119.112 151.544 118.944 151.544 118.649L151.291 115.955C151.249 115.786 151.333 115.618 151.46 115.533L153.017 114.102C153.228 113.934 153.523 113.934 153.733 114.144C153.944 114.355 153.902 114.691 153.691 114.86L152.344 116.123L152.554 118.565C152.596 118.86 152.386 119.112 152.091 119.112C152.091 119.112 152.077 119.112 152.049 119.112Z" fill="black"/>
<path d="M150.154 145.68C146.66 145.68 142.534 144.796 138.618 141.638C138.365 141.428 138.323 141.133 138.534 140.881C138.702 140.67 139.039 140.628 139.249 140.796C147.965 147.786 157.902 143.07 157.986 143.028C158.238 142.902 158.575 143.028 158.702 143.28C158.828 143.533 158.744 143.87 158.449 143.996C158.407 144.038 154.87 145.68 150.154 145.68Z" fill="white"/>
<path d="M169.27 180.079C169.13 180.079 169.003 180.037 168.891 179.953C168.68 179.742 168.638 179.405 168.849 179.195C177.228 169.595 167.838 153.595 167.754 153.427C167.586 153.174 167.67 152.837 167.923 152.711C168.175 152.543 168.512 152.627 168.68 152.88C169.059 153.553 178.491 169.721 169.649 179.868C169.565 179.995 169.396 180.079 169.27 180.079Z" fill="white"/>
<path d="M155.712 128.838C154.449 128.838 153.439 128.08 152.933 127.491C152.765 127.28 152.807 126.943 153.017 126.775C153.228 126.606 153.565 126.606 153.733 126.817C153.817 126.901 155.165 128.459 156.933 127.448C157.186 127.28 157.481 127.364 157.649 127.617C157.775 127.87 157.691 128.206 157.438 128.333C156.849 128.669 156.259 128.838 155.712 128.838Z" fill="black"/>
<path d="M23 354.012V410.095C23 411.779 24.5579 413.168 26.5367 413.168H138.997C140.934 413.168 142.534 411.779 142.534 410.095V354.012C142.534 352.328 140.934 350.938 138.997 350.938H26.5367C24.5579 350.938 23 352.328 23 354.012Z" fill="#ADA4F7"/>
<path d="M23 355.065V359.486H142.534V355.065C142.534 352.791 140.934 350.938 138.997 350.938H26.5367C24.5579 350.938 23 352.791 23 355.065Z" fill="white"/>
<path d="M120.892 355.19C120.892 356.327 121.777 357.211 122.913 357.211C124.05 357.211 124.934 356.327 124.934 355.19C124.934 354.054 124.05 353.169 122.913 353.169C121.777 353.169 120.892 354.054 120.892 355.19Z" fill="#FFAF45"/>
<path d="M127.376 355.19C127.376 356.327 128.303 357.211 129.397 357.211C130.534 357.211 131.46 356.327 131.46 355.19C131.46 354.054 130.534 353.169 129.397 353.169C128.303 353.169 127.376 354.054 127.376 355.19Z" fill="#EA366E"/>
<path d="M133.903 355.19C133.903 356.327 134.787 357.211 135.924 357.211C137.06 357.211 137.945 356.327 137.945 355.19C137.945 354.054 137.06 353.169 135.924 353.169C134.787 353.169 133.903 354.054 133.903 355.19Z" fill="#7C4FD3"/>
<path d="M67.0411 374.938H131.46V371.106H67.0411V374.938Z" fill="#50447E"/>
<path d="M67.0411 385.127H131.46V381.296H67.0411V385.127Z" fill="#50447E"/>
<path d="M67.0411 395.315H131.46V391.484H67.0411V395.315Z" fill="#50447E"/>
<path d="M32.9369 395.316H59.9678V371.274H32.9369V395.316Z" fill="#E4E4EA"/>
<path fill-rule="evenodd" clip-rule="evenodd" d="M366.907 72.1665H268.341C265.436 72.1665 263.078 69.7666 263.078 66.8614V5.26302C263.078 2.35784 265.436 0 268.341 0H366.907C369.812 0 372.212 2.35784 372.212 5.26302V66.8614C372.212 69.7666 369.812 72.1665 366.907 72.1665ZM268.341 1.55786C266.278 1.55786 264.636 3.19992 264.636 5.26302V66.8614C264.636 68.9245 266.278 70.6087 268.341 70.6087H366.907C368.97 70.6087 370.612 68.9245 370.612 66.8614V5.26302C370.612 3.19992 368.97 1.55786 366.907 1.55786H268.341Z" fill="#2E1562"/>
<path d="M371.411 13.5149H263.835C263.414 13.5149 263.078 13.178 263.078 12.757C263.078 12.336 263.414 11.957 263.835 11.957H371.411C371.833 11.957 372.211 12.336 372.211 12.757C372.211 13.178 371.833 13.5149 371.411 13.5149Z" fill="#2E1562"/>
<path d="M274.74 9.64214C274.572 9.64214 274.418 9.586 274.277 9.47372L268.551 5.26331C268.214 5.01068 268.13 4.54754 268.383 4.1686C268.635 3.83176 269.141 3.78966 269.477 4.04228L275.204 8.2527C275.54 8.50532 275.625 8.96847 275.372 9.3053C275.204 9.51582 274.993 9.64214 274.74 9.64214Z" fill="#2E1562"/>
<path d="M269.014 9.64214C268.804 9.64214 268.551 9.51582 268.383 9.3053C268.13 8.96847 268.214 8.50532 268.551 8.2527L274.277 4.04228C274.614 3.78966 275.119 3.83176 275.372 4.1686C275.625 4.54754 275.54 5.01068 275.204 5.26331L269.477 9.47372C269.337 9.586 269.183 9.64214 269.014 9.64214Z" fill="#2E1562"/>
<path d="M426.4 186.858C426.4 186.858 436.631 182.395 445.642 188.205C454.694 194.058 451.199 207.363 451.199 207.363C451.199 207.363 463.325 219.32 464.546 231.404C465.767 243.53 459.494 246.646 459.494 246.646L439.158 237.257L431.41 199.279L426.4 186.858Z" fill="black"/>
<path d="M403.243 233.763C403.243 233.763 400.338 223.742 404.632 218.184C409.137 212.374 416.379 212.079 416.379 207.195C416.379 195.953 424.632 190.816 424.632 190.816L424.59 235.194L403.243 233.763Z" fill="black"/>
<path d="M394.822 470.304C394.822 470.304 366.317 483.945 357.896 491.903C349.476 499.861 349.055 505.25 350.023 507.945C350.991 510.597 409.895 507.945 409.895 507.945C409.895 507.945 410.527 491.777 416.8 492.829C423.116 493.84 419.663 508.366 419.663 508.366L437.473 508.197C437.473 508.197 438.315 492.114 437.01 485.798C435.621 478.977 431.663 469.756 431.663 469.756L394.822 470.304Z" fill="#50447E"/>
<path d="M400.885 465.587C400.885 465.587 376.38 479.44 380.843 480.871C385.306 482.303 410.569 482.555 417.979 479.861C425.389 477.166 431.579 469.503 431.579 469.503L414.779 461.545L400.885 465.587Z" fill="#FC8165"/>
<path d="M431.579 469.503L434.779 455.441L404.632 449.335L400.253 471.566L431.579 469.503Z" fill="#FC8165"/>
<path d="M513.85 419.148C513.85 419.148 530.902 445.715 539.829 453.083C548.755 460.452 554.186 460.199 556.712 458.936C559.239 457.631 549.344 399.527 549.344 399.527C549.344 399.527 533.176 400.874 533.471 394.517C533.723 388.159 548.502 389.759 548.502 389.759L546.144 372.117C546.144 372.117 530.103 373.296 523.997 375.359C517.387 377.591 508.756 382.643 508.756 382.643L513.85 419.148Z" fill="#50447E"/>
<path d="M508.419 413.716C508.419 413.716 525.176 436.284 526.061 431.695C526.903 427.063 524.04 401.969 520.461 394.98C516.84 387.948 508.461 382.77 508.461 382.77L502.651 400.411L508.419 413.716Z" fill="#FC8165"/>
<path d="M508.461 382.769L494.146 381.337L491.788 411.989L514.44 413.547L508.461 382.769Z" fill="#FC8165"/>
<path d="M342.529 239.952C342.529 239.952 321.308 240.289 317.477 239.952C313.645 239.573 317.477 236.836 317.477 236.836C317.477 236.836 310.151 236.12 312.719 234.099C315.287 232.078 339.455 231.615 344.886 232.415C350.36 233.173 358.233 234.268 358.233 234.268L342.529 239.952Z" fill="#FC8165"/>
<path d="M424.8 225.552C424.8 225.552 412.001 226.057 408.716 227.152C405.432 228.247 382.191 240.752 377.98 240.752C373.812 240.752 356.423 229.721 356.423 229.721L330.824 244.331C330.824 244.331 346.739 276.877 372.128 279.825C397.559 282.73 407.453 272.33 407.453 272.33L424.8 225.552Z" fill="#ADA4F7"/>
<path d="M336.171 247.32C334.023 247.32 330.908 245.047 330.487 244.752C330.276 244.584 330.234 244.247 330.403 243.994C330.571 243.784 330.908 243.741 331.118 243.91C332.676 245.047 335.539 246.647 336.676 246.141C337.771 245.636 338.36 242.563 338.444 240.71C338.444 240.542 338.529 240.373 338.697 240.289C338.865 240.205 339.076 240.205 339.202 240.289C340.802 241.131 345.181 243.026 346.655 241.552C348.507 239.657 348.044 234.9 348.044 234.857C348.044 234.689 348.086 234.521 348.255 234.394C348.381 234.31 348.549 234.268 348.718 234.31C351.834 235.152 354.907 235.405 355.286 234.9C356.086 233.721 355.918 232.121 355.918 232.121C355.876 231.826 356.086 231.573 356.381 231.531C356.675 231.489 356.928 231.7 356.97 231.994C356.97 232.079 357.181 234.015 356.17 235.489C355.244 236.794 351.202 235.994 349.139 235.489C349.223 237.047 349.139 240.542 347.413 242.31C345.476 244.205 341.181 242.436 339.413 241.594C339.286 243.152 338.739 246.394 337.097 247.11C336.816 247.25 336.508 247.32 336.171 247.32Z" fill="#7C4FD3"/>
<path d="M440.252 467.609L389.306 466.641C389.306 466.641 377.686 425.168 377.349 386.853C377.138 364.201 382.949 340.16 387.664 324.244C390.99 313.213 393.811 306.14 393.811 306.14L422.569 308.203L427.747 308.582L428.295 348.875C428.295 348.875 430.232 408.2 430.947 417.547C431.705 426.936 440.252 467.609 440.252 467.609Z" fill="#2E1562"/>
<path d="M423.2 326.644L387.664 324.244C390.991 313.213 393.812 306.14 393.812 306.14L422.569 308.203L423.2 326.644Z" fill="#2E1562"/>
<path d="M456.21 293.551C456.21 293.551 461.515 324.666 463.62 342.686C465.052 354.812 474.988 367.486 486.398 371.191C497.767 374.938 508.629 376.664 508.629 376.664L510.061 420.958C510.061 420.958 471.536 431.273 444.463 414.348C430.947 405.885 423.368 393.085 419.158 380.243C415.284 368.538 414.063 353.928 414.021 340.329L417.853 303.235L456.21 293.551Z" fill="#2E1562"/>
<path d="M432.968 225.637C413.979 223.784 398.232 237.131 395.622 256.036L396.085 264.752C396.085 264.752 392.969 304.666 393.812 306.14C394.611 307.572 408.001 311.235 424.674 310.393C441.347 309.593 454.652 307.993 455.494 307.361C455.747 307.193 463.452 300.161 463.368 290.604C463.115 267.404 451.031 228.5 451.031 228.037C451.031 227.742 443.158 226.605 432.968 225.637Z" fill="#ADA4F7"/>
<path d="M453.515 322.181C443.873 322.181 442.947 314.644 442.947 314.602C442.905 314.307 443.115 314.055 443.41 314.013C443.747 313.971 443.958 314.181 444 314.476C444.042 314.771 444.926 321.423 454.02 321.086C454.315 321.086 454.568 321.297 454.568 321.591C454.568 321.886 454.357 322.139 454.063 322.139C453.866 322.167 453.684 322.181 453.515 322.181Z" fill="white"/>
<path fill-rule="evenodd" clip-rule="evenodd" d="M465.388 371.738C465.22 371.738 465.052 371.724 464.883 371.696C463.957 371.527 463.62 370.98 463.494 370.559C462.61 367.78 469.178 360.791 470.525 359.401C470.694 359.233 470.946 359.191 471.157 359.317C471.325 359.401 471.451 359.612 471.451 359.864C471.367 360.201 470.188 368.917 467.073 371.148C466.539 371.541 465.978 371.738 465.388 371.738ZM470.104 361.422C467.325 364.496 464.041 368.748 464.504 370.222C464.504 370.348 464.588 370.559 465.094 370.643C465.557 370.727 466.02 370.643 466.441 370.306C468.336 368.959 469.557 364.37 470.104 361.422Z" fill="white"/>
<path d="M445.599 272.878C445.599 272.878 443.831 267.909 443.199 266.351C442.526 264.751 442.821 259.404 440.884 258.478C438.989 257.594 438.4 266.225 438.4 266.225C438.4 266.225 427.032 253.383 424.926 253.973C422.821 254.562 427.705 263.236 427.705 263.236C427.705 263.236 419.2 254.015 417.6 255.657C415.958 257.341 423.2 266.478 423.2 266.478C423.2 266.478 416.716 260.92 415.453 262.73C414.148 264.499 424.505 278.646 424.505 278.646C424.505 278.646 430.484 293.424 438.652 291.319C446.863 289.214 445.599 272.878 445.599 272.878Z" fill="#FC8165"/>
<path d="M317.477 237.342C317.266 237.342 317.056 237.215 316.971 237.005C316.887 236.752 317.013 236.458 317.266 236.331C317.519 236.247 322.234 234.479 326.992 233.679L325.561 233.3C325.266 233.216 325.097 232.921 325.182 232.668C325.266 232.373 325.561 232.205 325.855 232.289L329.855 233.384C330.108 233.468 330.276 233.721 330.234 233.973C330.234 234.226 330.024 234.437 329.771 234.437C324.424 234.773 317.729 237.3 317.645 237.342C317.589 237.342 317.533 237.342 317.477 237.342Z" fill="black"/>
<path d="M297.73 229.553H384.043L366.107 222.984H279.793L297.73 229.553Z" fill="#7C4FD3"/>
<path d="M297.351 233.173H384.043V229.552H297.351V233.173Z" fill="white"/>
<path d="M279.793 222.984V226.984L297.351 233.174V229.553L279.793 222.984Z" fill="#2E1562"/>
<path d="M366.107 222.984L349.812 177.638C349.602 177.048 349.055 176.669 348.465 176.669H268.004C267.036 176.669 266.362 177.596 266.615 178.522L279.793 222.984H366.107Z" fill="#80BAFF"/>
<path d="M356.297 215.152L344.213 181.469C344.044 181.006 343.623 180.711 343.16 180.711H278.867C278.109 180.711 277.562 181.427 277.772 182.185L287.877 216.331C288.088 217.131 288.846 217.678 289.688 217.678H354.528C355.834 217.678 356.76 216.373 356.297 215.152Z" fill="white"/>
<path d="M451.031 228.036C451.031 228.036 476.378 238.31 491.704 263.025C505.809 285.887 506.061 305.971 482.188 311.823C458.273 317.676 434.358 294.519 434.358 294.519L446.779 269.382L452.42 271.572L451.031 228.036Z" fill="#ADA4F7"/>
<path d="M439.452 270.857C439.242 270.857 439.073 270.73 438.989 270.52L437.979 266.309C437.895 266.099 438.063 265.846 438.274 265.762C438.526 265.72 438.779 265.846 438.821 266.099L439.873 270.309C439.958 270.52 439.789 270.772 439.537 270.814C439.509 270.842 439.481 270.857 439.452 270.857Z" fill="black"/>
<path d="M424.8 268.751C424.674 268.751 424.547 268.709 424.463 268.583L422.863 266.772C422.695 266.604 422.695 266.309 422.905 266.141C423.074 265.972 423.368 266.015 423.537 266.183L425.137 267.993C425.305 268.204 425.305 268.499 425.095 268.625C425.01 268.709 424.912 268.751 424.8 268.751Z" fill="black"/>
<path d="M429.389 265.425C429.263 265.425 429.137 265.383 429.053 265.299L427.368 263.53C427.2 263.362 427.2 263.067 427.368 262.899C427.579 262.73 427.832 262.73 428 262.941L429.726 264.667C429.895 264.878 429.853 265.13 429.684 265.299C429.6 265.383 429.502 265.425 429.389 265.425Z" fill="black"/>
<path d="M480.209 279.698C480.125 279.698 480.027 279.67 479.914 279.614C468.841 272.624 452.42 269.93 452.294 269.888C451.999 269.845 451.789 269.551 451.831 269.298C451.873 269.003 452.168 268.793 452.462 268.835C452.589 268.877 469.22 271.614 480.504 278.729C480.757 278.856 480.841 279.193 480.672 279.445C480.546 279.614 480.378 279.698 480.209 279.698Z" fill="#7C4FD3"/>
<path fill-rule="evenodd" clip-rule="evenodd" d="M476.63 275.109C473.388 275.109 469.346 274.478 467.704 273.93C467.494 273.846 467.367 273.636 467.367 273.425C467.325 273.215 467.494 273.004 467.704 272.92C468.083 272.794 477.557 269.425 480.588 272.372C481.388 273.13 481.22 273.72 481.051 274.015C480.588 274.815 478.778 275.109 476.63 275.109ZM469.809 273.383C473.725 274.141 479.662 274.309 480.125 273.467C480.125 273.467 480.083 273.341 479.83 273.13C478.104 271.446 472.967 272.457 469.809 273.383Z" fill="#7C4FD3"/>
<path fill-rule="evenodd" clip-rule="evenodd" d="M375.917 251.026C375.454 251.026 375.075 250.857 374.865 250.52C373.601 248.668 376.843 241.847 377.517 240.499C377.643 240.289 377.854 240.205 378.107 240.247C378.317 240.289 378.486 240.457 378.528 240.71C378.612 241.468 379.201 248.12 377.391 250.31C377.026 250.759 376.577 250.997 376.044 251.026C376.015 251.026 375.973 251.026 375.917 251.026ZM377.601 242.857C376.212 246.015 375.244 249.173 375.707 249.889C375.749 249.931 375.791 250.015 375.959 249.973C376.212 249.973 376.38 249.847 376.591 249.636C377.559 248.499 377.686 245.257 377.601 242.857Z" fill="#7C4FD3"/>
<path d="M452.378 307.487C452.266 307.487 452.182 307.473 452.126 307.445C451.578 307.15 439.41 300.666 435.41 295.15C435.284 294.982 435.242 294.771 435.368 294.561C435.452 294.392 435.663 294.308 435.873 294.308C436.758 294.434 439.2 294.476 439.747 293.34C440.294 292.287 438.947 289.971 437.979 288.75C437.852 288.624 437.81 288.371 437.936 288.203C438.021 287.992 438.231 287.908 438.442 287.908C438.484 287.908 443.831 288.371 446.063 286.014C447.831 284.119 444.378 278.645 442.905 276.708C442.778 276.54 442.736 276.33 442.863 276.161C442.947 275.951 443.157 275.866 443.326 275.866C443.368 275.866 446.61 275.951 448.378 274.182C448.659 273.902 448.785 273.565 448.757 273.172C448.715 271.909 447.073 270.309 446.442 269.803C446.231 269.593 446.189 269.256 446.357 269.046C446.568 268.835 446.905 268.793 447.115 268.961C447.242 269.046 449.726 271.109 449.852 273.13C449.88 273.831 449.641 274.435 449.136 274.94C447.705 276.372 445.599 276.793 444.336 276.877C445.81 278.982 449.094 284.329 446.863 286.729C444.926 288.75 441.347 289.003 439.452 289.003C440.294 290.224 441.431 292.371 440.715 293.803C440.042 295.15 438.231 295.403 436.968 295.445C441.473 300.539 452.505 306.434 452.589 306.518C452.883 306.645 452.968 306.981 452.841 307.234C452.715 307.402 452.547 307.487 452.378 307.487Z" fill="#7C4FD3"/>
<path d="M442.989 190.563C442.989 190.563 455.284 172.332 461.557 184.079C467.831 195.868 450.357 212.289 443.873 206.436C437.347 200.542 442.989 190.563 442.989 190.563Z" fill="black"/>
<path d="M437.895 216.794L437.473 230.226C437.473 230.226 435.284 231.826 428.421 232.162C423.284 232.415 421.558 230.984 421.558 230.984L423.326 219.489L435.831 217.173L437.895 216.794Z" fill="#FC8165"/>
<path d="M435.831 217.173C435.775 217.51 435.649 217.889 435.452 218.31C432.631 224.078 425.39 225.089 422.442 225.257L423.326 219.489L435.831 217.173Z" fill="black"/>
<path d="M421.6 192.668C421.6 192.668 414.948 207.194 417.095 215.447C419.284 223.699 426.779 222.52 431.284 221.004C435.789 219.489 437.895 216.794 437.895 216.794C437.895 216.794 442.063 218.31 444.926 214.436C447.789 210.605 446.147 206.1 443.789 205.047C441.431 203.994 438.568 205.678 438.568 205.678L440.842 201.468C440.842 201.468 431.874 179.7 421.6 192.668Z" fill="#FC8165"/>
<path d="M438.568 205.679C438.568 205.679 432.252 206.858 427.958 199.827C423.621 192.795 424.042 189.932 424.042 189.932L419.663 197.132C419.663 197.132 418.737 192.122 420.758 188.922C422.779 185.764 424.842 186.438 424.842 186.438L438.694 190.017L442.231 201.174L438.568 205.679Z" fill="black"/>
<path d="M421.937 211.321C421.727 211.321 421.516 211.153 421.474 210.942C420.506 207.784 422.779 204.584 422.863 204.458C423.032 204.248 423.369 204.163 423.579 204.332C423.832 204.5 423.874 204.837 423.706 205.09C423.706 205.09 421.685 207.995 422.442 210.647C422.527 210.9 422.4 211.195 422.106 211.279C422.049 211.307 421.993 211.321 421.937 211.321Z" fill="black"/>
<path d="M428.547 201.3C428.337 201.3 428.126 201.174 428.042 200.964C427.284 198.69 426.063 198.943 426.021 198.943C425.726 198.985 425.474 198.816 425.389 198.564C425.347 198.269 425.474 198.016 425.768 197.932C425.853 197.932 427.916 197.385 429.053 200.585C429.137 200.879 428.968 201.174 428.716 201.258C428.66 201.286 428.603 201.3 428.547 201.3Z" fill="black"/>
<path d="M419.327 198.984C419.298 198.984 419.256 198.97 419.2 198.942C418.948 198.9 418.779 198.605 418.821 198.311C418.863 198.226 419.158 197.174 420.042 196.795C420.66 196.57 421.333 196.697 422.063 197.174C422.316 197.342 422.358 197.679 422.19 197.889C422.063 198.142 421.726 198.226 421.474 198.058C421.179 197.847 420.758 197.637 420.463 197.763C420.084 197.932 419.874 198.395 419.832 198.563C419.79 198.816 419.579 198.984 419.327 198.984Z" fill="black"/>
<path d="M439.116 212.584C438.989 212.584 438.821 212.542 438.737 212.415C438.526 212.247 438.526 211.91 438.737 211.7L442.737 207.531C442.947 207.321 443.284 207.321 443.494 207.531C443.705 207.7 443.705 208.037 443.494 208.247L439.495 212.415C439.368 212.542 439.242 212.584 439.116 212.584Z" fill="black"/>
<path d="M443.326 211.489C443.298 211.489 443.27 211.489 443.242 211.489L440.505 211.026C440.21 210.984 440 210.731 440.042 210.437C440.126 210.184 440.379 209.974 440.673 210.016L443.41 210.479C443.663 210.521 443.873 210.774 443.831 211.068C443.789 211.321 443.579 211.489 443.326 211.489Z" fill="black"/>
<path d="M419.453 205.553C419.425 205.553 419.397 205.553 419.369 205.553C419.074 205.511 418.905 205.258 418.948 204.963L419.326 202.521L418.442 201.427C418.274 201.216 418.316 200.879 418.526 200.669C418.737 200.5 419.074 200.543 419.242 200.753L420.253 202.058C420.379 202.143 420.379 202.311 420.379 202.437L419.958 205.132C419.916 205.385 419.705 205.553 419.453 205.553Z" fill="black"/>
<path d="M427.411 206.268C427.074 206.226 426.863 205.974 426.905 205.679L427.242 203.237L425.937 201.932C425.726 201.763 425.726 201.427 425.937 201.216C426.147 201.005 426.442 201.005 426.653 201.216L428.126 202.69C428.253 202.816 428.295 202.984 428.295 203.153L427.916 205.805C427.874 206.1 427.663 206.268 427.411 206.268Z" fill="black"/>
<path fill-rule="evenodd" clip-rule="evenodd" d="M423.916 216.542C422.442 216.542 420.632 215.279 420.421 215.11C420.253 214.984 420.169 214.773 420.211 214.563C420.253 214.394 420.421 214.226 420.632 214.184L426.989 212.963C427.2 212.963 427.411 213.047 427.537 213.216C427.663 213.384 427.663 213.594 427.537 213.805C427.368 214.015 425.937 216.079 424.463 216.458C424.295 216.514 424.112 216.542 423.916 216.542ZM422.147 214.942C422.863 215.321 423.663 215.615 424.168 215.489C424.716 215.321 425.305 214.815 425.811 214.268L422.147 214.942Z" fill="black"/>
<path d="M290.951 184.753L298.951 212.584C299.077 213.047 299.582 213.468 300.045 213.468H339.413C339.918 213.468 340.171 213.047 340.044 212.584L332.045 184.753C331.918 184.29 331.413 183.869 330.95 183.869H291.582C291.077 183.869 290.825 184.29 290.951 184.753Z" fill="#D2D2DB"/>
<path d="M290.951 184.753L291.33 186.143H332.466L332.045 184.753C331.918 184.29 331.413 183.869 330.95 183.869H291.582C291.077 183.869 290.825 184.29 290.951 184.753Z" fill="#E4E4EA"/>
<path d="M304.972 197.048H299.035L297.309 191.069H303.245L304.972 197.048Z" fill="white"/>
<path d="M307.035 204.248H301.098L299.414 198.311H305.351L307.035 204.248Z" fill="white"/>
<path d="M309.014 211.489H303.077L301.393 205.553H307.329L309.014 211.489Z" fill="white"/>
<path d="M329.687 193.806H305.814L305.561 192.921H329.434L329.687 193.806Z" fill="#ADA4F7"/>
<path d="M331.792 201.048H307.877L307.624 200.164H331.539L331.792 201.048Z" fill="#ADA4F7"/>
<path d="M301.393 196.121L298.614 194.437L299.077 193.679L301.056 194.858L302.487 192.458L303.287 192.921L301.393 196.121Z" fill="#EA366E"/>
<path d="M303.624 203.321L300.803 201.637L301.267 200.879L303.288 202.058L304.719 199.658L305.477 200.121L303.624 203.321Z" fill="#EA366E"/>
<path fill-rule="evenodd" clip-rule="evenodd" d="M428.337 238.226C428.14 238.226 427.93 238.212 427.705 238.184C426.274 238.016 425.221 237.468 424.59 236.5C424 235.658 423.874 234.689 423.916 233.931C422.442 234.9 419.958 236.289 418.611 235.658C418.274 235.489 418.021 235.195 417.895 234.774C417.516 233.3 419.327 230.563 419.705 230.058C419.874 229.847 420.169 229.763 420.379 229.889C420.505 229.932 430.189 235.11 439.2 228.5C439.326 228.374 439.537 228.374 439.663 228.416C439.831 228.458 439.958 228.584 440.042 228.753C440.168 229.174 441.263 232.795 439.158 233.805C437.684 234.479 436.084 233.595 435.284 233.005C434.442 234.479 431.916 238.226 428.337 238.226ZM425.053 232.542C425.095 232.668 425.137 232.795 425.095 232.921C425.095 232.963 424.632 234.689 425.474 235.91C425.923 236.612 426.709 237.019 427.832 237.131C431.537 237.595 434.231 232.753 434.61 232.037C431.031 233.174 427.663 233.047 425.053 232.542ZM420.337 231.026C419.579 232.205 418.779 233.847 418.948 234.521C418.948 234.647 419.032 234.689 419.074 234.689C419.958 235.152 422.695 233.553 424.253 232.374C422.4 231.953 421.011 231.363 420.337 231.026ZM435.41 231.742C435.438 231.77 435.466 231.784 435.495 231.784C435.495 231.826 437.305 233.51 438.694 232.837C439.537 232.416 439.41 230.858 439.2 229.805C437.937 230.647 436.673 231.279 435.41 231.742Z" fill="#7C4FD3"/>
<path d="M395.706 278.898C395.411 278.898 395.159 278.645 395.159 278.392L395.538 264.835C395.243 264.077 393.559 259.446 394.274 252.877C395.327 243.025 401.727 239.025 402.022 238.857C402.274 238.688 402.569 238.772 402.737 239.025C402.906 239.278 402.822 239.615 402.569 239.741C402.485 239.783 396.295 243.699 395.327 253.004C394.569 259.782 396.548 264.498 396.59 264.54C396.618 264.596 396.632 264.667 396.632 264.751L396.211 278.392C396.211 278.687 396.001 278.898 395.706 278.898Z" fill="#7C4FD3"/>
<path d="M426.147 387.022C423.579 387.022 421.642 386.601 421.432 386.558C421.137 386.474 420.969 386.18 421.053 385.927C421.095 385.632 421.39 385.464 421.684 385.506C421.769 385.548 431.326 387.569 435.41 382.432C436.673 380.832 437.179 379.317 436.926 377.885C436.547 375.696 434.484 374.39 434.484 374.39C434.358 374.306 434.274 374.18 434.231 374.011C434.231 373.843 434.273 373.717 434.358 373.59C434.442 373.506 442.189 365.17 437.263 356.286C435.747 353.549 433.81 351.823 431.453 351.233C427.705 350.223 424.211 352.286 424.211 352.328C424 352.412 423.79 352.412 423.621 352.286C423.453 352.159 423.369 351.949 423.411 351.738C423.747 350.096 424.295 345.423 422.905 343.907C422.569 343.528 422.19 343.402 421.6 343.444C417.684 343.823 414.316 348.959 414.274 349.044C414.106 349.296 413.811 349.338 413.558 349.17C413.306 349.044 413.221 348.707 413.39 348.454C413.516 348.244 417.095 342.812 421.516 342.391C422.4 342.307 423.158 342.56 423.705 343.191C425.263 344.917 424.884 348.959 424.632 350.896C426.021 350.307 428.758 349.423 431.747 350.18C434.358 350.896 436.547 352.749 438.189 355.738C442.821 364.117 437.137 371.906 435.537 373.843C436.295 374.432 437.6 375.78 437.937 377.674C438.273 379.443 437.684 381.253 436.252 383.106C433.684 386.306 429.432 387.022 426.147 387.022Z" fill="white"/>
<path fill-rule="evenodd" clip-rule="evenodd" d="M461.052 411.442C456.336 411.484 452.883 404.916 452.041 403.148C450.568 403.526 445.726 404.411 442.231 402.348C440.505 401.337 439.41 399.737 438.947 397.59C438.442 395.442 438.779 393.716 439.915 392.411C441.726 390.264 445.263 390.011 446.821 390.011C446.526 388.453 445.936 384.664 447.873 382.769C449.094 381.548 451.115 381.338 453.81 382.138C454.694 380.917 457.978 376.917 463.452 377.843C464.883 378.096 465.894 378.769 466.441 379.906C467.83 382.643 466.146 387.106 465.431 388.706C467.241 389.253 472.504 391.106 473.725 394.221C474.146 395.358 474.02 396.537 473.262 397.758C470.567 402.011 466.399 402.263 464.546 402.137C465.094 403.695 466.062 407.105 464.883 409.379C464.294 410.432 463.325 411.105 461.978 411.358C461.669 411.442 461.36 411.47 461.052 411.442ZM452.378 402.011C452.547 402.011 452.757 402.137 452.841 402.305C452.883 402.432 456.799 411.316 461.81 410.347C462.82 410.137 463.536 409.674 463.915 408.874C465.262 406.39 463.283 401.758 463.241 401.716C463.157 401.505 463.199 401.295 463.325 401.169C463.452 401 463.662 400.916 463.873 401C464.083 401.042 469.22 402.137 472.378 397.169C472.925 396.285 473.051 395.443 472.715 394.6C471.494 391.443 464.631 389.548 464.588 389.548C464.42 389.506 464.294 389.379 464.21 389.253C464.167 389.085 464.167 388.916 464.252 388.79C464.252 388.748 466.946 383.19 465.515 380.369C465.094 379.569 464.336 379.064 463.241 378.896C457.641 377.927 454.61 382.811 454.483 383.022C454.357 383.232 454.105 383.316 453.894 383.274C451.368 382.474 449.599 382.559 448.589 383.527C446.61 385.464 448.084 390.39 448.126 390.432C448.168 390.601 448.126 390.769 447.999 390.895C447.915 391.064 447.747 391.148 447.578 391.106C447.494 391.106 442.736 390.769 440.673 393.127C439.789 394.137 439.579 395.569 439.958 397.337C440.379 399.19 441.347 400.579 442.778 401.463C446.442 403.611 452.168 402.053 452.21 402.011C452.266 402.011 452.322 402.011 452.378 402.011Z" fill="white"/>
<path d="M485.893 382.558C484.841 382.558 483.83 382.348 482.946 381.8C477.725 378.642 479.62 368.579 479.704 368.158C479.746 367.864 480.041 367.695 480.336 367.737C480.588 367.779 480.799 368.074 480.757 368.369C480.715 368.453 478.904 378.137 483.493 380.874C488.041 383.653 496.04 376.495 496.125 376.411C496.209 376.327 496.377 376.242 496.546 376.284C496.672 376.284 496.84 376.369 496.925 376.537C496.925 376.537 498.861 379.569 501.893 379.821C503.956 379.99 506.103 378.811 508.209 376.327C508.419 376.116 508.756 376.074 508.966 376.284C509.177 376.453 509.219 376.79 509.009 377.042C506.651 379.779 504.251 381.084 501.809 380.874C499.03 380.663 497.135 378.558 496.377 377.59C494.904 378.853 490.104 382.558 485.893 382.558Z" fill="white"/>
<path d="M499.535 423.483C499.24 423.483 498.987 423.231 498.987 422.936C498.987 422.894 498.988 420.873 496.377 418.431C494.272 416.494 489.219 419.736 487.451 421.126C487.283 421.252 487.114 421.294 486.946 421.252C486.777 421.168 486.651 421.041 486.609 420.873C486.525 420.62 484.546 414.473 477.725 414.094C470.904 413.715 466.82 422.683 466.778 422.768C466.651 423.02 466.357 423.147 466.062 423.02C465.809 422.894 465.683 422.599 465.809 422.347C465.978 421.925 470.02 413.042 477.304 413.042C477.444 413.042 477.599 413.042 477.767 413.042C483.914 413.378 486.567 418.094 487.325 419.905C489.093 418.599 494.398 415.147 497.093 417.673C500.082 420.452 500.04 422.852 500.04 422.936C500.04 423.231 499.83 423.483 499.535 423.483Z" fill="white"/>
<path d="M459.326 357.844C459.213 357.844 459.101 357.844 458.989 357.844C457.641 357.76 456.673 357.254 456.084 356.37C455.284 355.191 455.452 353.633 455.62 352.707C453.094 352.918 445.094 352.918 443.705 346.265C442.316 339.36 449.515 334.644 451.578 333.465C450.778 332.118 450.063 329.676 451.999 327.823C454.694 325.213 461.852 331.487 462.652 332.202C462.862 332.413 462.904 332.75 462.694 332.96C462.483 333.171 462.147 333.213 461.936 333.002C459.199 330.518 454.231 327.15 452.715 328.581C450.694 330.56 452.673 333.213 452.757 333.339C452.884 333.465 452.926 333.634 452.884 333.76C452.842 333.929 452.757 334.055 452.589 334.139C452.505 334.181 443.326 338.981 444.758 346.012C446.189 353.002 456.168 351.612 456.252 351.57C456.462 351.57 456.631 351.654 456.757 351.781C456.884 351.907 456.884 352.118 456.841 352.286C456.841 352.328 456.084 354.517 456.968 355.781C457.361 356.398 458.062 356.735 459.073 356.791C463.073 356.96 465.768 351.781 465.81 351.739C465.936 351.486 466.273 351.36 466.525 351.528C466.778 351.654 466.904 351.949 466.778 352.244C466.652 352.454 463.873 357.844 459.326 357.844Z" fill="white"/>
<path d="M419.074 380.748C418.274 380.748 410.442 380.58 409.685 374.264C408.969 368.706 412.211 362.896 413.137 361.338C411.242 359.696 403.074 352.159 405.432 344.16C408 335.486 414.316 332.034 414.569 331.907C414.821 331.739 415.158 331.865 415.284 332.118C415.453 332.37 415.327 332.707 415.074 332.834C415.032 332.876 408.885 336.202 406.443 344.454C404.043 352.622 414.063 360.706 414.148 360.791C414.358 360.959 414.442 361.254 414.274 361.506C414.232 361.549 409.979 368.159 410.695 374.138C411.411 379.822 419.032 379.695 419.116 379.695C419.411 379.695 419.663 379.906 419.663 380.201C419.663 380.495 419.453 380.748 419.158 380.748C419.158 380.748 419.13 380.748 419.074 380.748Z" fill="white"/>
<path fill-rule="evenodd" clip-rule="evenodd" d="M415.285 450.809C411.664 450.809 407.958 447.273 406.864 446.136C405.39 447.188 400.253 450.683 397.138 449.925C396.211 449.701 395.538 449.139 395.117 448.241C393.222 444.325 398.19 440.031 400.169 438.515C398.275 437.631 394.106 434.936 394.106 429.042C394.064 427.694 394.569 426.557 395.496 425.715C397.601 423.863 401.432 423.947 402.822 424.073C403.159 422.179 404.801 415.652 409.727 415.358C410.864 415.273 411.874 415.652 412.674 416.452C414.948 418.684 414.99 423.821 414.948 425.463C416.885 425.715 423.705 426.768 425.811 430.094C426.484 431.273 426.611 432.536 426.063 433.926C424.126 439.02 420.379 439.61 418.569 439.568C419.621 441.757 421.853 447.525 417.937 450.052C417.095 450.599 416.169 450.809 415.285 450.809ZM406.906 444.915C407.032 444.915 407.201 444.957 407.285 445.083C407.369 445.125 413.348 451.736 417.348 449.125C421.348 446.599 417.221 439.273 417.179 439.189C417.095 439.02 417.095 438.768 417.221 438.599C417.348 438.431 417.558 438.347 417.769 438.431C417.979 438.473 422.821 439.526 425.095 433.547C425.474 432.452 425.432 431.526 424.884 430.684C422.821 427.315 414.443 426.473 414.358 426.473C414.064 426.431 413.853 426.178 413.895 425.884C413.895 425.842 414.232 419.484 411.916 417.21C411.327 416.621 410.653 416.368 409.769 416.41C404.969 416.705 403.79 424.621 403.748 424.705C403.748 425 403.495 425.21 403.159 425.168C403.116 425.168 398.359 424.579 396.211 426.515C395.496 427.147 395.159 427.989 395.159 429.042C395.159 435.82 401.138 437.841 401.39 437.926C401.601 437.968 401.727 438.136 401.769 438.347C401.769 438.557 401.685 438.726 401.517 438.852C401.474 438.894 394.148 443.862 396.043 447.82C396.338 448.367 396.759 448.746 397.39 448.873C399.959 449.504 404.885 446.304 406.569 444.999C406.681 444.943 406.794 444.915 406.906 444.915Z" fill="white"/>
<path d="M382.485 414.431C381.419 414.431 380.24 414.263 378.949 413.926C378.654 413.842 378.486 413.589 378.57 413.294C378.654 413 378.949 412.831 379.201 412.915C382.485 413.757 384.927 413.463 386.443 411.989C389.433 409.126 388.17 402.81 388.127 402.726C388.127 402.6 388.127 402.431 388.254 402.305C388.338 402.179 388.464 402.095 388.633 402.095C388.927 402.095 396.085 401.463 397.98 393.505C399.832 385.548 390.443 381.8 390.064 381.632C389.896 381.59 389.812 381.464 389.769 381.295C389.685 381.169 389.727 381 389.769 380.874C389.812 380.832 391.159 378.348 390.443 375.99C390.106 374.769 389.222 373.801 387.875 373.085C387.075 372.664 386.233 372.58 385.349 372.916C381.391 374.222 377.896 381.758 377.854 381.842C377.77 382.095 377.433 382.221 377.18 382.095C376.886 381.969 376.801 381.632 376.928 381.379C377.054 381.043 380.633 373.38 384.97 371.906C386.149 371.485 387.285 371.569 388.38 372.116C389.98 373.001 391.033 374.18 391.496 375.695C392.085 377.801 391.369 379.906 390.948 380.874C393.096 381.842 400.801 386.053 398.99 393.716C397.264 401.126 391.201 402.726 389.264 403.063C389.559 404.789 390.064 410.01 387.159 412.747C386.008 413.87 384.45 414.431 382.485 414.431Z" fill="white"/>
<path d="M380.675 356.749C380.563 356.749 380.436 356.749 380.296 356.749C380.001 356.749 379.749 356.496 379.791 356.201C379.791 355.906 380.001 355.654 380.338 355.696C382.065 355.78 383.538 355.233 384.591 354.096C388.001 350.475 387.201 342.138 387.201 342.054C387.159 341.844 387.328 341.591 387.538 341.507C387.706 341.465 391.496 339.949 392.548 334.896C393.601 329.928 387.58 327.149 387.496 327.149C387.243 327.023 387.117 326.686 387.243 326.434C387.37 326.181 387.664 326.055 387.917 326.181C388.001 326.181 394.822 329.297 393.601 335.107C392.591 339.865 389.391 341.802 388.296 342.349C388.422 344.117 388.717 351.275 385.391 354.812C384.17 356.117 382.57 356.749 380.675 356.749Z" fill="white"/>
<path d="M429.6 399.653C429.432 399.653 429.263 399.611 429.179 399.443C409.769 374.265 412.843 345.129 414.485 329.508C414.597 328.469 414.695 327.501 414.779 326.603L401.138 325.845C400.843 325.845 400.59 325.592 400.632 325.297C400.632 325.003 400.843 324.75 401.18 324.792L415.411 325.592C415.537 325.592 415.706 325.676 415.79 325.761C415.874 325.887 415.916 326.013 415.916 326.182C415.804 327.22 415.678 328.357 415.537 329.592C413.937 345.086 410.864 373.97 430.021 398.811C430.189 399.064 430.147 399.359 429.937 399.569C429.824 399.625 429.712 399.653 429.6 399.653Z" fill="white"/>
<path d="M314.529 438.177H197.816C193.396 438.177 189.817 434.599 189.817 430.178V274.182C189.817 269.803 193.396 266.224 197.816 266.224H314.529C318.95 266.224 322.529 269.803 322.529 274.182V430.178C322.529 434.599 318.95 438.177 314.529 438.177Z" fill="#D2D2DB"/>
<path d="M225.815 310.013H203.458C201.858 310.013 200.553 308.708 200.553 307.108V284.751C200.553 283.151 201.858 281.846 203.458 281.846H225.815C227.415 281.846 228.721 283.151 228.721 284.751V307.108C228.721 308.708 227.415 310.013 225.815 310.013Z" fill="white"/>
<path d="M225.815 353.254H203.458C201.858 353.254 200.553 351.948 200.553 350.348V327.991C200.553 326.391 201.858 325.086 203.458 325.086H225.815C227.415 325.086 228.721 326.391 228.721 327.991V350.348C228.721 351.948 227.415 353.254 225.815 353.254Z" fill="white"/>
<path d="M225.815 396.452H203.458C201.858 396.452 200.553 395.147 200.553 393.547V371.232C200.553 369.59 201.858 368.285 203.458 368.285H225.815C227.415 368.285 228.721 369.59 228.721 371.232V393.547C228.721 395.147 227.415 396.452 225.815 396.452Z" fill="white"/>
<path d="M214.026 305.087L205.184 296.119L208.511 292.835L213.605 298.013L220.595 288.919L224.3 291.74L214.026 305.087Z" fill="#7C4FD3"/>
<path d="M214.026 348.328L205.184 339.36L208.511 336.075L213.605 341.212L220.595 332.118L224.3 334.981L214.026 348.328Z" fill="#7C4FD3"/>
<path d="M214.026 391.527L205.184 382.601L208.511 379.317L213.605 384.453L220.595 375.359L224.3 378.222L214.026 391.527Z" fill="#7C4FD3"/>
<path d="M241.857 291.235L241.815 286.561L303.708 286.182L303.75 290.856L241.857 291.235Z" fill="#EA366E"/>
<path d="M241.857 304.076L241.815 299.403L287.708 299.108L287.751 303.781L241.857 304.076Z" fill="#EA366E"/>
<path d="M243.626 334.223L243.583 329.55L289.477 329.255L289.519 333.928L243.626 334.223Z" fill="#EFEFF4"/>
<path d="M243.626 347.064L243.583 342.391L303.708 341.97L303.75 346.685L243.626 347.064Z" fill="#EFEFF4"/>
<path d="M243.626 377.211L243.583 372.537L305.477 372.116L305.519 376.79L243.626 377.211Z" fill="#EFEFF4"/>
<path d="M243.626 390.011L243.583 385.338L289.477 385.043L289.519 389.717L243.626 390.011Z" fill="#EFEFF4"/>
<path d="M209.732 59.7454H67.504V28.841C67.504 24.6726 70.9145 21.2622 75.1249 21.2622H185.227C198.743 21.2622 209.732 32.2514 209.732 45.8089V59.7454Z" fill="white"/>
<path d="M394.906 126.902L395.496 122.65L462.146 40.4626C463.62 38.6521 466.399 38.4416 468.294 39.9574C470.188 41.5152 470.567 44.252 469.094 46.0625L402.401 128.25L398.359 129.681L395.327 130.776C394.906 130.944 394.401 130.565 394.485 130.102L394.906 126.902Z" fill="#7C4FD3"/>
<path d="M455.115 67.9563C454.862 67.9563 454.567 67.8721 454.357 67.6616C453.894 67.2405 453.894 66.5669 454.273 66.1037C454.357 65.9774 463.409 55.9566 466.778 50.7357C469.514 46.399 465.978 43.7464 465.599 43.4517C465.094 43.1149 464.967 42.3991 465.304 41.8939C465.641 41.3886 466.357 41.2623 466.862 41.5991C468.841 42.9886 471.788 46.9042 468.63 51.9146C465.22 57.304 456.294 67.1563 455.915 67.5774C455.704 67.83 455.41 67.9563 455.115 67.9563Z" fill="#2E1562"/>
<path d="M399.158 120.797C399.074 120.825 399.004 120.811 398.948 120.755C398.78 120.628 398.78 120.418 398.906 120.25L411.495 104.755C411.621 104.587 411.832 104.587 411.958 104.713C412.084 104.797 412.127 105.008 412 105.176L399.411 120.713C399.327 120.755 399.243 120.797 399.158 120.797Z" fill="white"/>
</svg>
