<svg width="21" height="21" viewBox="0 0 21 21" fill="none" xmlns="http://www.w3.org/2000/svg">
<path d="M1.5 3.64149C1.5 3.06428 1.70271 2.58809 2.10811 2.21292C2.51351 1.83773 3.04055 1.65015 3.68919 1.65015C4.32626 1.65015 4.84169 1.83484 5.23552 2.20426C5.64092 2.58521 5.84363 3.08159 5.84363 3.69344C5.84363 4.24755 5.64672 4.7093 5.2529 5.07872C4.8475 5.45967 4.31467 5.65014 3.65444 5.65014H3.63707C2.99999 5.65014 2.48456 5.45967 2.09073 5.07872C1.69691 4.69776 1.5 4.21868 1.5 3.64149ZM1.72587 18.793V7.2259H5.58301V18.793H1.72587ZM7.72008 18.793H11.5772V12.3341C11.5772 11.9301 11.6236 11.6184 11.7162 11.3991C11.8784 11.0066 12.1245 10.6747 12.4546 10.4034C12.7847 10.1321 13.1988 9.99646 13.6969 9.99646C14.9942 9.99646 15.6429 10.868 15.6429 12.6112V18.793H19.5V12.161C19.5 10.4524 19.0946 9.15664 18.2838 8.27352C17.473 7.3904 16.4015 6.94885 15.0695 6.94885C13.5753 6.94885 12.4112 7.58954 11.5772 8.87092V8.90556H11.5598L11.5772 8.87092V7.2259H7.72008C7.74324 7.5953 7.75483 8.74393 7.75483 10.6718C7.75483 12.5996 7.74324 15.3067 7.72008 18.793Z" fill="#1B1E3E"/>
</svg>
