<svg width="20" height="21" viewBox="0 0 20 21" fill="none" xmlns="http://www.w3.org/2000/svg">
<path d="M13.0202 3.65339V3.65015H13.8642L14.1726 3.71174C14.3782 3.75172 14.5649 3.80413 14.7326 3.86896C14.9003 3.93379 15.0626 4.00944 15.2195 4.09588C15.3764 4.18232 15.5187 4.27039 15.6464 4.36007C15.773 4.44869 15.8866 4.54269 15.9872 4.6421C16.0868 4.74259 16.242 4.76853 16.453 4.7199C16.664 4.67128 16.8913 4.60374 17.1347 4.5173C17.3782 4.43086 17.619 4.33361 17.857 4.22554C18.0951 4.11748 18.2401 4.04887 18.292 4.0197C18.3429 3.98945 18.3699 3.97324 18.3732 3.97107L18.3764 3.96621L18.3926 3.95811L18.4089 3.95L18.4251 3.9419L18.4413 3.93379L18.4446 3.92893L18.4494 3.92569L18.4543 3.92245L18.4575 3.91759L18.4738 3.91272L18.49 3.90948L18.4868 3.93379L18.4819 3.95811L18.4738 3.98242L18.4657 4.00673L18.4575 4.02294L18.4494 4.03915L18.4413 4.06346C18.4359 4.07967 18.4305 4.10128 18.4251 4.12829C18.4197 4.15531 18.3683 4.26336 18.2709 4.45246C18.1735 4.64157 18.0518 4.83336 17.9057 5.02786C17.7596 5.22236 17.6287 5.36931 17.5129 5.46873C17.3961 5.56922 17.3187 5.63945 17.2808 5.67944C17.2429 5.72049 17.197 5.75831 17.1428 5.7929L17.0617 5.84639L17.0455 5.85449L17.0292 5.86259L17.026 5.86746L17.0211 5.8707L17.0162 5.87394L17.013 5.8788L16.9968 5.88691L16.9805 5.89501L16.9773 5.89987L16.9724 5.90312L16.9676 5.90636L16.9643 5.91122L16.9611 5.91608L16.9562 5.91932L16.9513 5.92257L16.9481 5.92743H17.0292L17.4837 5.83018C17.7867 5.76534 18.0761 5.68701 18.352 5.59516L18.7903 5.44928L18.839 5.43307L18.8633 5.42497L18.8795 5.41686L18.8958 5.40876L18.912 5.40065L18.9282 5.39255L18.9607 5.38769L18.9932 5.38445V5.41686L18.985 5.4201L18.9769 5.42497L18.9737 5.42983L18.9688 5.43307L18.9639 5.43631L18.9607 5.44118L18.9575 5.44604L18.9526 5.44928L18.9477 5.45252L18.9445 5.45738L18.9412 5.46225L18.9364 5.46549L18.9282 5.4817L18.9201 5.49791L18.9153 5.50115C18.9131 5.50439 18.8444 5.59623 18.7091 5.77669C18.5739 5.95822 18.5008 6.05006 18.49 6.05223C18.4792 6.05547 18.464 6.07168 18.4446 6.10086C18.4262 6.1311 18.3115 6.2516 18.1005 6.46231C17.8895 6.67301 17.6828 6.86048 17.4805 7.02474C17.277 7.19006 17.1742 7.3932 17.1721 7.63417C17.1688 7.87406 17.1564 8.14529 17.1347 8.44784C17.1131 8.7504 17.0725 9.07726 17.013 9.42844C16.9535 9.77963 16.8615 10.1767 16.7371 10.6198C16.6127 11.0628 16.4612 11.495 16.2826 11.9164C16.1041 12.3379 15.9174 12.716 15.7226 13.051C15.5279 13.386 15.3493 13.6697 15.187 13.902C15.0247 14.1343 14.8597 14.3531 14.692 14.5584C14.5243 14.7637 14.3122 14.995 14.0558 15.2521C13.7982 15.5082 13.6576 15.6487 13.6338 15.6735C13.6089 15.6973 13.5028 15.7859 13.3156 15.9394C13.1295 16.0939 12.9293 16.2484 12.7151 16.4029C12.5019 16.5564 12.3061 16.6844 12.1275 16.7871C11.949 16.8897 11.7337 17.0069 11.4815 17.1388C11.2305 17.2717 10.9589 17.3949 10.6667 17.5083C10.3746 17.6218 10.0662 17.7271 9.74159 17.8244C9.41697 17.9216 9.10318 17.9973 8.8002 18.0513C8.49723 18.1053 8.15367 18.1513 7.76954 18.1891L7.19334 18.2458V18.2539H6.13834V18.2458L6.00038 18.2377C5.90841 18.2323 5.83266 18.2269 5.77315 18.2215C5.71364 18.2161 5.48911 18.1864 5.09957 18.1324C4.71003 18.0783 4.40435 18.0243 4.18252 17.9703C3.96071 17.9163 3.63068 17.8136 3.19244 17.6623C2.75421 17.511 2.37928 17.3581 2.06765 17.2036C1.7571 17.0502 1.56233 16.9529 1.48334 16.9119C1.40543 16.8719 1.31778 16.8222 1.2204 16.7627L1.07432 16.6736L1.07109 16.6687L1.0662 16.6655L1.06133 16.6623L1.05809 16.6574L1.04186 16.6493L1.02563 16.6412L1.0224 16.6363L1.01751 16.6331L1.01264 16.6298L1.00939 16.625L1.00616 16.6201L1.00128 16.6169H0.993164V16.5845L1.00939 16.5877L1.02563 16.5926L1.09866 16.6007C1.14736 16.6061 1.27991 16.6142 1.49632 16.625C1.71274 16.6358 1.94267 16.6358 2.18613 16.625C2.42959 16.6142 2.67848 16.5899 2.93275 16.552C3.18704 16.5142 3.48731 16.4494 3.83356 16.3575C4.17983 16.2657 4.49795 16.1566 4.78795 16.0301C5.07686 15.9026 5.28244 15.8075 5.40472 15.7449C5.5259 15.6833 5.71093 15.5687 5.9598 15.4012L6.33311 15.15L6.33636 15.1452L6.34123 15.1419L6.34611 15.1387L6.34934 15.1338L6.35259 15.1289L6.35746 15.1257L6.36234 15.1225L6.36557 15.1176L6.3818 15.1127L6.39803 15.1095L6.40128 15.0933L6.40615 15.0771L6.41103 15.0738L6.41426 15.069L6.28442 15.0609C6.19786 15.0555 6.11399 15.0501 6.03284 15.0447C5.95168 15.0393 5.82455 15.0149 5.65141 14.9717C5.4783 14.9285 5.29164 14.8637 5.09145 14.7772C4.89128 14.6908 4.69651 14.5881 4.50714 14.4693C4.31779 14.3504 4.1809 14.2515 4.0965 14.1726C4.01319 14.0948 3.90498 13.9846 3.77188 13.842C3.63988 13.6983 3.52517 13.5508 3.42779 13.3995C3.3304 13.2482 3.23735 13.0737 3.14864 12.876L3.0139 12.581L3.00579 12.5567L2.99767 12.5324L2.9928 12.5161L2.98956 12.4999L3.0139 12.5032L3.03825 12.508L3.21679 12.5324C3.33583 12.5486 3.52248 12.554 3.77675 12.5486C4.03104 12.5432 4.20687 12.5324 4.30426 12.5161C4.40164 12.4999 4.46116 12.4891 4.48279 12.4837L4.51526 12.4756L4.55583 12.4675L4.59641 12.4594L4.59966 12.4546L4.60453 12.4513L4.60941 12.4481L4.61264 12.4432L4.58018 12.4351L4.54772 12.427L4.51526 12.4189L4.48279 12.4108L4.45033 12.4027C4.4287 12.3973 4.39083 12.3865 4.33672 12.3703C4.28262 12.3541 4.13654 12.2946 3.89848 12.192C3.66044 12.0893 3.47108 11.9894 3.3304 11.8921C3.18938 11.7946 3.05492 11.6879 2.92788 11.5728C2.80128 11.4561 2.66225 11.3059 2.51075 11.1222C2.35927 10.9385 2.22401 10.7251 2.10498 10.482C1.98596 10.2389 1.89669 10.0065 1.83717 9.78503C1.77789 9.56481 1.73878 9.33967 1.72032 9.11238L1.69109 8.772L1.70732 8.77525L1.72355 8.78011L1.73978 8.78821L1.75601 8.79632L1.77224 8.80442L1.78848 8.81252L2.04005 8.92598C2.20778 9.00163 2.41607 9.06646 2.66494 9.12048C2.91382 9.17451 3.0626 9.20423 3.11129 9.20963L3.18433 9.21773H3.3304L3.32717 9.21287L3.32229 9.20963L3.31742 9.20639L3.31417 9.20153L3.31094 9.19666L3.30606 9.19342L3.30119 9.19018L3.29794 9.18532L3.28171 9.17721L3.26548 9.16911L3.26225 9.16425L3.25737 9.16101L3.2525 9.15776L3.24925 9.1529L3.23302 9.1448L3.21679 9.13669L3.21356 9.13183C3.21031 9.12966 3.16378 9.09509 3.07396 9.0281C2.98522 8.96002 2.89217 8.87196 2.79479 8.7639C2.6974 8.65584 2.60002 8.54238 2.50263 8.42352C2.40507 8.30439 2.31817 8.17694 2.24294 8.04262C2.16721 7.90756 2.08712 7.73573 2.00272 7.5272C1.91941 7.31973 1.85611 7.11064 1.81282 6.89993C1.76955 6.68922 1.7452 6.48122 1.73978 6.27591C1.73438 6.0706 1.73978 5.89501 1.75601 5.74914C1.77224 5.60326 1.80471 5.43847 1.8534 5.25478C1.90209 5.07109 1.97244 4.87659 2.0644 4.67128L2.20236 4.36332L2.21048 4.339L2.21859 4.31469L2.22348 4.31145L2.22671 4.30659L2.22995 4.30172L2.23482 4.29848L2.23971 4.30172L2.24294 4.30659L2.24618 4.31145L2.25105 4.31469L2.25594 4.31793L2.25917 4.3228L2.26242 4.32766L2.26728 4.3309L2.2754 4.34711L2.28352 4.36332L2.2884 4.36656L2.29163 4.37142L2.51075 4.61455C2.65682 4.77663 2.82996 4.95763 3.03013 5.15753C3.23033 5.35743 3.34123 5.46116 3.36287 5.46873C3.38452 5.47737 3.41156 5.50222 3.44402 5.54329C3.47648 5.58327 3.58469 5.6789 3.76864 5.83018C3.9526 5.98145 4.19335 6.15705 4.49091 6.35695C4.78849 6.55685 5.11851 6.75406 5.48099 6.94856C5.84349 7.14306 6.23303 7.31864 6.64961 7.47533C7.06621 7.63202 7.35836 7.73467 7.52608 7.78329C7.69381 7.83192 7.98054 7.89404 8.38631 7.96969C8.79208 8.04533 9.09777 8.09396 9.30335 8.11556C9.50895 8.13717 9.64962 8.1496 9.72536 8.15284L9.83897 8.15608L9.83574 8.13177L9.83086 8.10746L9.79839 7.90485C9.77676 7.76979 9.76593 7.58069 9.76593 7.33756C9.76593 7.09443 9.78487 6.87022 9.82274 6.66491C9.86062 6.4596 9.91743 6.2516 9.99316 6.04089C10.0689 5.83018 10.143 5.66106 10.2155 5.53356C10.2891 5.40714 10.3854 5.26288 10.5044 5.1008C10.6235 4.93871 10.7777 4.77123 10.967 4.59834C11.1564 4.42544 11.3728 4.27146 11.6162 4.1364C11.8597 4.00133 12.0842 3.89867 12.2898 3.82844C12.4954 3.75821 12.6686 3.71227 12.8092 3.69067C12.9499 3.66906 13.0202 3.65663 13.0202 3.65339Z" fill="#1B1E3E"/>
</svg>
